<svg id="Calque_1" data-name="Calque 1" xmlns="http://www.w3.org/2000/svg" viewBox="0 0 337.56 337.56">
  <defs>
    <style>
      .cls-1 {
        fill: #1e1e1c;
      }
    </style>
  </defs>
  <g>
    <g>
      <path class="cls-1" d="M56.24,163.62a5.44,5.44,0,0,1-2,2.15c-1.82,1.27-3.63,2.75-5.44,4-2,1.52-7.52,4.49-9.53,6l-1.21.92c-.4.3-.62.14-1,0-.41.31-.61.35-1.06-.18l-.44-.32A10,10,0,0,1,33,176.2a2.13,2.13,0,0,1-.87-.44.93.93,0,0,1,0-1l-.22-.16v-.21c-.22-.16-.63-.06-.66-.48a3,3,0,0,1,.14-1.3c.6-.57.37-.94.34-1.56-.34-6.27-1-14.58-1.34-21.06,0-7.62,0-12-.26-16.65l0-11.43.35-5.15a8.1,8.1,0,0,1,.52-2c0-.21.19-.47.61-.35,0,.21.23.37.24.58s-.17.67.26.78l0,.42A1.42,1.42,0,0,1,32,117c0,3.18-.29,6.2-.12,9.33.14,2.72.42,15.77.88,24.34l-.3-21.3a44.82,44.82,0,0,0-.06-5.06c.09-2.14,0-4.23.28-6.41a4,4,0,0,0,.1-2.14,6.69,6.69,0,0,1,.51-2.23c.19-.26.18-.47.39-.52a.61.61,0,0,1,1-.24s.21,0,.22.16c.59-.77.59-.77,2.06-.69l0,.42.22.16.39-.51a.56.56,0,0,1,.43.11,7.18,7.18,0,0,1,.11,2.09,38.91,38.91,0,0,0-.6,8.39c0,3.39-.06,6.78.12,10.12l.12,2.3.23-7.45c0-4,0-8,.2-12.1.16-.89.11-1.73.29-2.4,0-.21,0-.42.38-.72l.06,1.25c-.44,3.49-.48,6.67-.71,10.11.07,1.46,0,3.18,0,4.64.09,1.68,0,3.19,0,4.65a37.31,37.31,0,0,0,0,4.64c.13,2.3.25,4.6.11,9.92l.63,11.7a55.19,55.19,0,0,0,.52,5.8c0,.21-.17.68,0,.84.41-.1.81-.4,1-.45,1.61-1.22,6.49-4,8.1-5.26l1.41-1a4.48,4.48,0,0,1,2.28-.52c.21,0,.22.16.42.11a4,4,0,0,1-.36.93c.63.07,1.43-.54,2.1.15l-.38.72,1-.24.67.69c-.17.68-.78,1-1,1.7a13.65,13.65,0,0,1,1.41-1.17,1.6,1.6,0,0,1-.57,1.19,4.12,4.12,0,0,0-.78,1,3.55,3.55,0,0,0-.8.82c.22.16.21-.05.42-.1l.79-.82,1-.86C56.64,163.32,56.43,163.37,56.24,163.62Zm-22.39,4.56c-.05-1-.3-1.83-.36-2.88,0-.21-.24-.57,0-.83.14-1.3-.35-2.46-.42-3.92l0,1,.3,5.64a8.64,8.64,0,0,0,.13,2.3,1.39,1.39,0,0,0,.25.79A8,8,0,0,0,33.85,168.18Zm2.9-47.63c.14-1.31.08-2.56.22-3.86-.2.26-.2.26-.19.46a21.54,21.54,0,0,0-.14,5.12v.21C36.61,121.85,36.79,121.17,36.75,120.55Zm5.62,46.29c1-.87,4.48-2.52,5.88-3.69-1.42.75-4.89,2.61-5.69,3.22C42.57,166.58,42.36,166.63,42.37,166.84Z"/>
      <path class="cls-1" d="M102.07,150.87l.05.84c-.06,2.76-2.89,8.71-6,9.64-.2.25-4.38,4.4-12.64,2.72l-.64-.28c-1.49-.5-2.19-1.82-1.66-3.63a.94.94,0,0,0,.18-.47c.21-.05.21-.05.43.12a.58.58,0,0,1,.23.37c0,.2.23.37.46.74l.21.16a.79.79,0,0,0,.19-.47c0-.21-.23-.37-.25-.79l0-.42c0-.41,0-.62.39-.72.2-.05.21.16.42.11,0,.21.23.37.24.58l.22.16.19-.25a.82.82,0,0,1,.35-1.35,1.31,1.31,0,0,0,.85.22c.2-.25.2-.25.42-.09.2-.05.23.37.42.11.4-.3.42-.1.63.07a1.68,1.68,0,0,0,1.3.75c1.47.08,4.4,0,5.17-1.2a5.15,5.15,0,0,0,.89-3,14.87,14.87,0,0,0-.59-3.24,17.24,17.24,0,0,0-3.73-7.17,50.47,50.47,0,0,1-4.25-9,106.44,106.44,0,0,1-6,21.9,11.08,11.08,0,0,1-1.3,3,14.32,14.32,0,0,1-1.15,2L76,164.54a9.23,9.23,0,0,1-1.17,1.54l-.2.26a14.94,14.94,0,0,1-1.78,1.9,12,12,0,0,1-4.45,2.93c-4.13,1.17-7.51.69-10.17-2.08A9.33,9.33,0,0,1,56.15,166a18,18,0,0,1-1.76-5.52,64.63,64.63,0,0,1-.88-12.69A62.43,62.43,0,0,1,55,137.25a31.38,31.38,0,0,1,2.19-6,10.63,10.63,0,0,1,4.79-4.5,10.64,10.64,0,0,1,4.12-1.38,8.81,8.81,0,0,1,4.19.09,2,2,0,0,1,1.33,1.38c0,.21.62-.14,1.38,2.22a31.25,31.25,0,0,1,1.25,7.75.91.91,0,0,0-.17.67,11.73,11.73,0,0,1,.14,2.72c-1.25,3.89-3.22,6.25-8.41,7.24l-2.69.62c-.41.1-.63-.06-1,0s-.61.35-.59.56l.11,2.09.07,1.46a31.23,31.23,0,0,0,1,6.12A19,19,0,0,0,65,163.07a7.09,7.09,0,0,0,3,2,2.77,2.77,0,0,0,1.5.5c2.31.1,5-4.75,6-8.59a47.78,47.78,0,0,0,1.48-7.75,6.5,6.5,0,0,1,.3-2.18c0-.21.18-.47.4-.31l.22.16c0-.62.15-1.09.13-1.51.52-2,.8-4.62,1.11-6.6l.91-6.56c.11-1.72.3-2.18.56-5.2,0-.21,1.19-5.15,1.37-5.61l.22.16a1.39,1.39,0,0,1,.25.79l.22.16c.21,0,.41-.1.4-.31s.19-.46.18-.67l0-.84.85.23a.26.26,0,0,1,.2-.26l.19-.26c.43.12.65.28,1.06.18v.21c1.62-1,6,3.25,5.84,3.3,0,.42-.18.68-.16,1.09-.17.68-.12,1.51-.3,2.19a11.25,11.25,0,0,0,1.81,6.35l.9,1.27c-.18.47-.18.47,0,.63,0,.21.22.16.22.16l.18-.47c1.35,1.8,2.7,3.4,4,5A21.12,21.12,0,0,1,102.07,150.87ZM56.22,139.72c0,.42-.16.89-.14,1.3-.18.68-.14,1.31-.31,2a63.24,63.24,0,0,0-.38,8.76,10,10,0,0,1-.39,4.32c0,.21,0,.21.23.37a5.6,5.6,0,0,1,.59,3.25l0,.42a.66.66,0,0,1,.24.58l.06,1,.21-.05.19-.25a8.32,8.32,0,0,0,.26,1c.22.16.25.58.67.7a2.07,2.07,0,0,1-.26-1,53,53,0,0,1-1.29-8.38l-.12-2.3c.1-1.92,0-3.6.13-5.31a16.94,16.94,0,0,1,.54-5.63l-.06-1A.24.24,0,0,1,56.22,139.72Zm4,23.62a.69.69,0,0,0-.25-.58,33.4,33.4,0,0,0-1.29-4.57,2,2,0,0,0-.26-1V157l-.2.25v.21a24.61,24.61,0,0,0,1.55,5.35Zm2-2a2.62,2.62,0,0,0-.48-1.15A32.53,32.53,0,0,1,60.33,154a.16.16,0,0,0-.21-.16l0,.42a13.34,13.34,0,0,0,.64,4.08A27.42,27.42,0,0,0,62,161.65l.21-.05Zm1.28.55-.8-3.2a18,18,0,0,1-1.15-5.87l-.19-3.55-.25-.79a1.41,1.41,0,0,0-.16.89l0,.42a33.26,33.26,0,0,0,.55,6.43,16,16,0,0,0,1.08,4.4A2.7,2.7,0,0,0,63.48,161.94Zm-1.62-18.66c0,.21.23.37.44.53a.73.73,0,0,0,.64.07,9.88,9.88,0,0,0,6.61-1.75c.2,0,.4-.3.38-.72l-.09-1.67A21.24,21.24,0,0,0,67.28,131c-.44-.32-.68-.9-1.11-1.22a.66.66,0,0,0-.83.19,12.56,12.56,0,0,0-.93,2.33A32.84,32.84,0,0,0,62,142,2.69,2.69,0,0,0,61.86,143.28ZM70,134.84a8,8,0,0,0,.53,2.2,11.22,11.22,0,0,0,.36,2.66,2.81,2.81,0,0,0,.13-1.3,16.93,16.93,0,0,0-.6-3.45l-.45-.53C70,134.63,69.79,134.88,70,134.84Zm3-3.44a36.44,36.44,0,0,1,.87,4.66.17.17,0,0,0,.22.16V136a24.8,24.8,0,0,0-.92-5.5l-.22-.16Zm10-4.65c0-.21-.23-.37-.42-.12a1.39,1.39,0,0,0-.38.73c.24.58,0,1,.09,1.67-.18.67-.14,1.3-.32,2l-.4,4.12a26.86,26.86,0,0,1-.64,3.74,30.81,30.81,0,0,1-.94,5.93l.2,0c0-.2.2-.25.19-.46a53,53,0,0,0,1.45-8.16c.46-3.07.72-6.1,1.18-9.16Zm6.7,3.73c0-.83-.29-1.41-.33-2.25V128l-.21,0a10.94,10.94,0,0,0,.35,2.67l.21-.05Zm1.06-3.63-.22-.16-.19.26a17.31,17.31,0,0,0,0,3.39.17.17,0,0,0,.22.16c0,.21.21-.05.21-.05A20.62,20.62,0,0,1,90.73,126.85Zm4.13,22.31c0,.21.24.58-.16.89a.64.64,0,0,0,.24.57c0,.21.19-.25.21.17.26.78.3,1.62.54,2.2,0,.21.23.37.24.58l.21,0,0-.42A5.35,5.35,0,0,0,94.86,149.16Zm3.19,1a9.67,9.67,0,0,0-.75-2.36,3.77,3.77,0,0,0,.53,2.2l0,.21Zm2-.89a11,11,0,0,0-.56-2.62c-.23-.37-.24-.58-.46-.74-.19.25,0,.62,0,.83a8.28,8.28,0,0,1,.52,2,1.69,1.69,0,0,1,.26,1l.21-.05Zm1.48.29a18.75,18.75,0,0,0-1.73-4.89.58.58,0,0,0-.23-.37c0,.42.26.79.28,1.2l.5,1.58.82,3.62a.17.17,0,0,0,.22.16.26.26,0,0,0,.2-.26Z"/>
      <path class="cls-1" d="M141.07,92.54a.61.61,0,0,0,.43.11,4.35,4.35,0,0,1-1,.66c-1,.45-1.62,1-2.43,1.41a1.47,1.47,0,0,1-.82.4,85.31,85.31,0,0,0-8.55,4.73l-1.62,1a.9.9,0,0,0-.58,1c.07,1.25-.08,2.34,0,3.59-.07,2.77.07,5.28.21,8l.46,8.57c0,.42-.16.88.06,1l.62-.14,2.45-1.2a37.14,37.14,0,0,1,4.3-1.85l1-.24c.21,0,.21,0,.64.07-.19.47-.6.56-1,1.07.42.12.62-.14,1-.24l.62-.14c.42-.1.64.07.45.53v.42l.83-.19a1.25,1.25,0,0,1,.27,1.2l.44.32a6.27,6.27,0,0,1-1,1.08c.43.11.62-.14.83-.19,0,.21-.2.25-.39.51a32.75,32.75,0,0,0-4,3c-1.22.71-2.43,1.62-3.65,2.33l-2.83,1.92a1.41,1.41,0,0,0-.56,1.19,32.86,32.86,0,0,0,0,4.44l.47,8.77a4.49,4.49,0,0,0,.3,1.63l.09,1.67c0,.84-.11,1.93-.06,2.76,0,.21,0,.63-.38.73,0-.42-.25-.79-.28-1.21a3,3,0,0,0-.14,1.3,1.15,1.15,0,0,1-.35,1.14c-.45-.53-.29-1.41-.53-2a6.34,6.34,0,0,1-1.49,3.52c-.45-.53,0-1.05-.5-1.58a1.41,1.41,0,0,0-.16.89l0,.83c-.21.05-.21.05-.22-.16a2.73,2.73,0,0,0-.36,1.14,2.53,2.53,0,0,0-1.25.08,2.4,2.4,0,0,1-.27-1.2L121.56,143c0-3-.1-5.69-.24-8.41l-.08-1.46c0-.21-.22-.16-.42-.11a.25.25,0,0,0-.2.25l0,.63c0,4.44.27,8.82.51,13.42,0,.63.26,1,.29,1.42l.08,1.67.11,1.88a10.54,10.54,0,0,1-.23,3.65l0,.41c-1,0-1.48-.29-1.53-1.33l-.22-4L119,138.9c0-3-.09-5.48-.22-8s0-4.85-.19-7.36l-.45-8.57c-.13-2.29-.05-4.85-.18-7.15l0-1c-.21,0-.43-.12-.64-.07v-.21l.59-.77c-.22-.16-.41.1-.63-.06l-.41.09c-.63.15-.83.2-1.28-.34-.43-.11-1,.24-1.28-.33-.43-.33-.25-.79-.27-1.21-.23-.37-.65-.48-.68-.9a3.61,3.61,0,0,1,.35-1.35,13.06,13.06,0,0,1,2.18-2.41,28.87,28.87,0,0,0,3-2.39,125.6,125.6,0,0,1,13.21-7.72,8.44,8.44,0,0,0,1-.45l1.45-.33h2.73c.63.06,1.26.13,1.5.71l.22.16a4.57,4.57,0,0,1,2.22,2.44.18.18,0,0,0,.22.17A1.41,1.41,0,0,0,141.07,92.54ZM118.2,99.75c-1,.66-1.83,1.06-2.2,2l.21,0c.83-.19,1.21-.91,1.81-1.48C118.22,100.17,118.21,100,118.2,99.75Zm9.72-6.28-.41.1-4.67,2.78a1,1,0,0,1-.41.3c-.19.26-.19.26,0,.42l.41-.1C124.48,95.75,126.1,94.74,127.92,93.47Zm-4.94,25a16.37,16.37,0,0,0-.25,3.24l.22,4.17,0,.42c.2-.26.2-.26.41-.3l0-.42C123.43,123.07,123.1,120.82,123,118.52Zm2.6,5.53c-.08-1.46-.44-8.14-.7-9.14-.06,2.76.26,8.82.3,9.66C125.59,124.26,125.59,124.26,125.58,124.05Zm0,11.43c0-.83.32-1.77.07-2.55-.4.3-.39.51-.38.72l.25,4.6a9.67,9.67,0,0,0,.34,2.46l-.14-2.51A11.59,11.59,0,0,0,125.56,135.48Zm.15-28.59v.21l.14,2.72a13.14,13.14,0,0,0,.06-2.77l0-.42C125.69,106.68,125.69,106.68,125.71,106.89Zm.2,3.76a37.59,37.59,0,0,0,0,4.65c.07,1.25-.06,2.76,0,4.22a29,29,0,0,0,.22,4.18c.42-.09.41-.3.4-.51l-.08-1.46-.57-10.66Zm1,21.78c0-.21-.22-.16-.22-.16a.26.26,0,0,0-.19.26c0,.41-.17.88-.15,1.09l.26,5L127,146l.06,1.25C127.2,146.53,126.91,133.27,126.86,132.43Zm.56-1.4.62-.14a17.23,17.23,0,0,1,2.63-1.67c.2-.26.4-.31.59-.77-.2.26-.42.1-.4.3-1,.66-1.83,1.06-2.64,1.67-.2.26-.2.26-.18.47C127.82,130.73,127.61,130.78,127.42,131Zm4.46-2.73c.2-.25.61-.35.8-.61.41-.3.61-.35.81-.61.61-.35,1.21-.91,1.82-1.26l.6-.57.41-.09a5.8,5.8,0,0,0,1-.87,2.2,2.2,0,0,0-1,.87c-.22-.16-.43-.11-.41.09a20.64,20.64,0,0,0-3.24,2.24v.2C132.27,127.79,131.86,127.89,131.88,128.3Z"/>
      <path class="cls-1" d="M141.43,99.22,141,98.9a2.56,2.56,0,0,1-2-2.49,4.82,4.82,0,0,1,.41-4.11,15.64,15.64,0,0,1,1.94-3,4.12,4.12,0,0,1,2.45-1.21l.41-.09a6.23,6.23,0,0,1,2.94.16c.44.32,1.06.18,1.29.55,0,.21.22.16.23.37l.6,3.46,0,.41a5.52,5.52,0,0,1-.32,2c0,.42-.17.67.06,1a1,1,0,0,0,.37-.93c.19-.25.18-.46.16-.88l.21,0,.22.16a3.49,3.49,0,0,1-1.13,2.38c-.2.26-.2.26-.19.47a2.37,2.37,0,0,1-2.23,1.36,2.51,2.51,0,0,0-1,.45C144,99.48,142.73,100,141.43,99.22Zm1.23,50.49c0-.42-.25-.79-.28-1.42-.07-1.25-.34-2.46-.41-3.71-.16-2.93-.51-5.59-.65-8.31l-.41-7.52c-.16-3.14,0-8.46,0-11.64l.4-4.32.52-2a1.87,1.87,0,0,1,1-1.07c.2,0,.41-.1.43.32a6,6,0,0,1-.1,1.93l-.46,3.28a17.8,17.8,0,0,0-.15,4.9l0,.42a19.57,19.57,0,0,0,0,3.6l.08,1.46a27.23,27.23,0,0,0,0,4.23,13.66,13.66,0,0,1,.36,2.87l.08,1.47,0,.41a.87.87,0,0,1,.19-.46l-.14-2.51c-.09-1.67,0-3.18,0-4.65a4,4,0,0,1,.13-1.51,7.34,7.34,0,0,1,.1-2.13c-.08-1.46-.06-5.07.06-6.58l.46-3.27-.08-1.47c.18-.46.15-1.09.32-1.76a1.42,1.42,0,0,1,.17-.89c.18-.46,1-.86,1.24-.29,0,.21.22.17.23.37v.21l.19-.25.38-.73c.2-.25.62-.14.83-.19.43.11.65.27.67.69a17.85,17.85,0,0,1-.25,3.23,18.15,18.15,0,0,0,0,3.39.87.87,0,0,1,.18-.67l.39-4.32c0-.63.14-1.3.11-1.93l.21,0c.2,0,.2,0,.22.16s.23.37.24.58c-.17.88-.12,1.72-.28,2.6l-.17,8.71a12.9,12.9,0,0,0-.06,2.77c-.19.25,0,.62.05.83a6.71,6.71,0,0,0,.09-2.13l.85-11.62a2.69,2.69,0,0,1,.14-1.3v-.21c.2,0,.2,0,.21.16l0,.62c0,.42-.16.89-.13,1.52-.28,2.6-.45,7.29-.52,9.85a24,24,0,0,1-.22,3.85l.14,2.51a35.64,35.64,0,0,0,0,4.65c.12,2.29.44,4.33.56,6.63.1,1.88.4,3.51.5,5.39.23.37,0,.63,0,.83l-.2,0,0-.63c-.2.05-.21-.16-.21-.16l0,.42.07,1.26-.2.25c-.2.26-.21,0-.22-.16a.87.87,0,0,1-.46-.74l-.2.05-.21,0a1.45,1.45,0,0,1-.34,1.56c0,.21-.18.46-.37.93l-.2,0a.66.66,0,0,1-.24-.58l-.21.05a.24.24,0,0,0-.2.25v.21c0,.63-.36.93-.33,1.56,0,.21-.6.56-1,.45,0,0-.21,0-.22-.16a.58.58,0,0,1-.23-.37,16.89,16.89,0,0,0-.81-3.41,18.8,18.8,0,0,1-.47-4.76l0-.83-.22-.16v.41c.14,2.51.27,5,.61,7.48a4.43,4.43,0,0,1,.09,1.67c0,.42-.17.67-.6.56C143.13,150.66,142.9,150.29,142.66,149.71Zm-1.33-56.18.39-.72c.17-.67.34-1.35.15-1.09-.42.1-.6.56-.8.82l-.16.88v.21Z"/>
      <path class="cls-1" d="M185.25,60.5l.14,2.72a15,15,0,0,1,0,3c-.07,2.56-.34,5.37-.21,7.88l-.1,9.75c-.12,1.72,0,3.18-.16,4.9.06,1-.09,2.14-.05,3l-.12,9.54c.12,2.3,0,4.44,0,6.79-.14,1.3-.08,2.55-.21,4.06l.05.84c0,.21,0,.21-.2.25V113l-.23-4.39a29.45,29.45,0,0,1,.19-4.28c-.15-2.72-.07-5.27,0-8-.09-1.68,0-3.19,0-4.65,0-.42.17-.67-.05-.83,0-.42.17-.89-.06-1.26l0,1a29.42,29.42,0,0,0-.2,4.06,14.2,14.2,0,0,0-.05,3,29.48,29.48,0,0,0,0,4.22l-.26,7c.1,1.88,0,3.81.09,5.48,0,4.65.08,9.29.32,13.89l.22,4.18.88,4.66a34.06,34.06,0,0,0,1.32,5l.25.79a6.64,6.64,0,0,0-.32-2A57.8,57.8,0,0,1,185,135c-.33-2.25-.45-4.55-.57-6.85l-.35-6.48a52.9,52.9,0,0,1,.1-5.94l0-.63.2,0,.22.17a34.15,34.15,0,0,0,0,4.64,19.35,19.35,0,0,1,0,3.39l.23,4.18a51.65,51.65,0,0,0,2.69,15l.8,3.2q.32.24,0,.63l-.21,0c-.21,0-.21,0-.18.47V147c0,.21,0,.42-.19.46a.54.54,0,0,1-.42-.11c0-.21-.22-.16-.41.1a.24.24,0,0,1-.2.25,2.21,2.21,0,0,1-1,1.29c-.21.05-.2.26-.4.31-.19.46-.6.56-1,.65a2,2,0,0,0-1.26-.13c-.21,0-.42-.11-.63-.06a5.39,5.39,0,0,1-2.87-2.72l-.77-2.57a42,42,0,0,1-2-10.32c-.33-2.25-.25-4.81-.39-7.32,0-.21,0-.62-.25-.78v-.21l-.21,0-.53,1.82a13.2,13.2,0,0,0-.91,2.54,1.31,1.31,0,0,0-.37.93,32.51,32.51,0,0,1-2.4,6.06l-.56,1.19a5.51,5.51,0,0,0-.77,1.44,5.33,5.33,0,0,1-.56,1.19,8.4,8.4,0,0,1-3,3.44,24.32,24.32,0,0,0-2,1.52,6.33,6.33,0,0,1-1.86.64,7.1,7.1,0,0,1-3.79-.39,5.57,5.57,0,0,1-2.91-3.55,22.46,22.46,0,0,1-.91-5.29c-.43-4.13-.66-8.31-.89-12.7-.14-2.5-.28-5.22-.22-8-.14-2.71-.08-5.48,0-8.24.1-2.14.19-4.28.09-6.16l.25-7c.07-2.56.14-5.32.41-8.14l.32-5.57a15.53,15.53,0,0,1,1.24-4.31l.78-1a.74.74,0,0,1,1-.24c.22.16.42.12.83-.19,0-.21.19-.26.4-.31a.38.38,0,0,1,.44.33,1,1,0,0,1,0,1c0,.63-.13,1.51-.08,2.35a.81.81,0,0,0-.17.67l.21.16v-.2c.18-.68.14-1.31.3-2.19l.13-1.51c.18-.67.38-.72.81-.61s.86.43,1.27.34c.23.37.24.58.46.74,0,.21,0,.42.22.16s.41-.1.42.11a7.84,7.84,0,0,1,.17,3.14c0,.41-.17.67-.16.88l-.2.26v-.42l-.06-1.25,0-.21c-.2,0-.2,0-.19.25a.84.84,0,0,0-.17.68,16.22,16.22,0,0,0-.25,3.23l-.35,5.16,0,.62v.21l.2-.26-.06-1,.43-3.7c0-.41.15-1.09.12-1.71l.21-.05c.2,0,.2,0,.21.16a4.85,4.85,0,0,1-.11,1.72,28.1,28.1,0,0,1-.19,4.27L163,95.48a53,53,0,0,1-.1,6c-.09,2.14,0,4.23-.08,6.36s0,4.23-.08,6.37l.17,3.13c.27,5,.32,9.87.59,14.89a23.27,23.27,0,0,0,.42,3.92,29.43,29.43,0,0,0,1.08,4.61v.21l.22.16a.26.26,0,0,0,.2-.26l.58-.77a68.66,68.66,0,0,0,4.52-9.51,80.31,80.31,0,0,0,4.61-19.68l.92-6.35A47.68,47.68,0,0,0,176.2,99l.23-7.46c-.08-1.46,0-3,0-4.44.09-2.35.16-4.9,0-7.2.13-1.51.05-3,.18-4.48-.07-1.26.07-2.56,0-3.81l.35-5.16A18.41,18.41,0,0,1,178.51,60l.56-1.4.58-.77c.2-.26.4-.51.61-.35.21,0,.44.32.26.78l-1.26,3.89a12.31,12.31,0,0,1-.29,2.4l.2,0a.92.92,0,0,1,.19-.47l.32-1.76c.16-.89.53-1.82.7-2.7l.56-1.19c0-.42.17-.68.16-.89a.84.84,0,0,1,.41-.3.36.36,0,0,1,.43.32l0,.42.21-.05c.2-.26.19-.47.39-.51a.68.68,0,0,1,.63.06c.64.07,1.06.18,1.09.81C185.15,58.62,185.2,59.67,185.25,60.5Zm-27.88,74.37c0-.84-.3-1.83-.35-2.67L156.8,128l-.26-4.8c-.08,2.34.05,4.85.18,7.15l.39,7.31c0,.21.21.16.23.37l.21.16V138Zm1.17-56.54a.58.58,0,0,0-.23-.37l-.21-.16V78a5.51,5.51,0,0,0-.68,3.12l0,.21.2,0A12.31,12.31,0,0,1,158.54,78.33Zm1.75,60.1c0-.42,0-.84-.26-1l-.07-1.26a30.69,30.69,0,0,0-.48-5l-.33-6.27-.05-.84a2.18,2.18,0,0,0-.15,1.1l.37,6.89a45.94,45.94,0,0,0,.5,5.39l.05,1s.21-.05.22.16A.25.25,0,0,1,160.29,138.43Zm1.56-6.08c-.08-5.48-.79-10.82-.68-16.55l-.15-2.93a45.49,45.49,0,0,0,.07,5.27c-.08,2.35,0,4.44.15,6.74,0,4,.43,7.94.64,11.91a1.68,1.68,0,0,1,.26,1,.58.58,0,0,0,.23.37c0,.21,0,.21.22.16l-.06-1A40.16,40.16,0,0,1,161.85,132.35ZM161.78,88l0-.42.38-4.53c0-.84.12-1.72.09-2.35l0-.84-.16.89c-.09,2.13-.4,4.32-.49,6.46l0,.83Zm1.49,47.46a7.45,7.45,0,0,0-.32-2l-.14-2.71-.64-11.91c0-.84.13-1.51.08-2.35l-.21-4v-.21a.26.26,0,0,0-.2.26,46.16,46.16,0,0,1,.08,5.27l.1,1.88c.18,3.35.36,6.69.32,9.87.11,2.09.22,4.18.55,6.43a5.39,5.39,0,0,0,.51,1.79l0-.42A2.92,2.92,0,0,0,163.27,135.41ZM180.12,141l-.28-1.42a38.13,38.13,0,0,1-.69-5.13l-.45-8.35a15.1,15.1,0,0,0-.38-3.09l0-.63a22.88,22.88,0,0,0,0-3.6l-.06-1-.2,0c0,1-.11,1.92-.06,3,.1,1.88,0,4,.11,5.9l.3,5.64.08,1.46a50.86,50.86,0,0,0,1.15,5.87A2.59,2.59,0,0,0,180.12,141Zm.67-42.47a.26.26,0,0,0-.2.26V99c.07,1.25-.06,2.76,0,4.23l-.28,6.62a47.72,47.72,0,0,1,.08,5.27c.11,2.09,0,4.23.13,6.32a58.12,58.12,0,0,0,.32,6.06l-.21,0,.19,3.56a18.33,18.33,0,0,0,.39,3.29l.9,5.08a.66.66,0,0,1,.24.58c0,.21.22.16.22.16V140a16.83,16.83,0,0,1-.6-3.24,45.34,45.34,0,0,1-.7-5.34,29.54,29.54,0,0,1-.33-6.06l-.2-3.76c-.08-1.46.05-3,0-4.44.11-1.93,0-3.6.13-5.53a18.74,18.74,0,0,1,0-3.6c-.1-1.88,0-3.6-.09-5.48l.13-1.51-.12-2.3ZM181,67.2l.21.16c.21,0,.21,0,.2-.26a2.82,2.82,0,0,0,.14-1.3.17.17,0,0,0-.22-.16.25.25,0,0,0-.19.26A3,3,0,0,1,181,67.2Zm2.07,27-.25,7c-.09,2.34-.17,4.69,0,7a20.37,20.37,0,0,0,0,3.39c-.1,1.93,0,3.6-.12,5.53.09,1.67,0,3.39.06,5.06l.44,8.15.16,3.13c.56,2.62,1.13,5.45,1.9,8a1.31,1.31,0,0,0,.47.94.68.68,0,0,0-.24-.58c-.33-2.25-.86-4.24-1.39-6.44a52.09,52.09,0,0,1-.73-5.76c-.18-3.34-.14-6.52-.31-9.65l0-.42c.12-1.72,0-3.39.16-4.9-.11-2.09,0-4.44-.14-6.53.13-1.51.05-3,.18-4.48-.1-1.88,0-3.81-.1-5.69.14-1.3.07-2.77.2-4.07l-.19-3.55A24.23,24.23,0,0,0,183.07,94.22Zm1.53-18.34a.16.16,0,0,1-.21-.16l0,.42a1.39,1.39,0,0,0-.17.88c0,.42-.16.89.06,1,.4-.31.17-.68.15-1.1l.16-.88Zm0-11c0,.63-.15,1.1-.13,1.51a21.55,21.55,0,0,1-.22,3.65,10.52,10.52,0,0,1-.07,2.56.17.17,0,0,0,.22.16V73a.26.26,0,0,0,.19-.26c0-.42.15-1.09.12-1.72l-.09-1.67a3.94,3.94,0,0,1,.13-1.51c-.05-.84.12-1.72.07-2.56l0-.62A.24.24,0,0,0,184.64,64.87Z"/>
      <path class="cls-1" d="M237.22,119.52l.05.83c-.06,2.77-2.89,8.71-6,9.64-.2.26-4.37,4.4-12.64,2.72l-.64-.27c-1.49-.5-2.19-1.82-1.66-3.64a.81.81,0,0,0,.18-.46c.21-.05.21-.05.43.11a.58.58,0,0,1,.23.37c0,.21.23.37.46.74l.21.16a.75.75,0,0,0,.19-.46c0-.21-.23-.37-.25-.79l0-.42c0-.42,0-.63.39-.72.2,0,.21.16.42.11,0,.21.23.37.24.58l.22.16.2-.26a.66.66,0,0,1-.24-.58.68.68,0,0,1,.58-.77,1.34,1.34,0,0,0,.85.23c.2-.26.2-.26.42-.1.2,0,.23.37.42.12.4-.31.42-.1.63.06a1.71,1.71,0,0,0,1.3.76c1.47.08,4.4,0,5.18-1.2a5.3,5.3,0,0,0,.89-3,15.05,15.05,0,0,0-.6-3.25,17.3,17.3,0,0,0-3.73-7.17,50.29,50.29,0,0,1-4.25-9,106.44,106.44,0,0,1-6,21.9,10.6,10.6,0,0,1-1.3,3,15.64,15.64,0,0,1-1.15,2l-1.14,2.17a9.67,9.67,0,0,1-1.18,1.54l-.19.26a14.9,14.9,0,0,1-1.79,1.89,12.16,12.16,0,0,1-4.45,2.94c-4.13,1.17-7.51.68-10.17-2.09a9.15,9.15,0,0,1-2.05-3.12,17.39,17.39,0,0,1-1.76-5.51,63.93,63.93,0,0,1-.89-12.7,62.57,62.57,0,0,1,1.53-10.51,31.88,31.88,0,0,1,2.19-6A12.8,12.8,0,0,1,201.29,94a8.81,8.81,0,0,1,4.19.08,2,2,0,0,1,1.33,1.39c0,.21.62-.15,1.38,2.22a30.79,30.79,0,0,1,1.25,7.74.93.93,0,0,0-.17.68,11.18,11.18,0,0,1,.14,2.72c-1.25,3.88-3.22,6.25-8.41,7.24l-2.69.62c-.41.1-.63-.06-1,0s-.62.36-.6.56l.11,2.09.08,1.47a30.48,30.48,0,0,0,.95,6.12,18.73,18.73,0,0,0,2.35,4.74,7.08,7.08,0,0,0,3,2,2.85,2.85,0,0,0,1.5.5c2.31.1,5-4.75,6-8.59a47.12,47.12,0,0,0,1.48-7.75,6.56,6.56,0,0,1,.3-2.19c0-.2.18-.46.4-.3l.22.16c0-.63.15-1.09.13-1.51.52-2,.8-4.63,1.11-6.6l.91-6.56c.11-1.72.3-2.19.56-5.21,0-.21,1.19-5.14,1.37-5.61l.22.17a1.35,1.35,0,0,1,.25.78l.22.16c.21,0,.42-.09.4-.3s.19-.47.18-.68l0-.83.85.22a.24.24,0,0,1,.2-.25l.19-.26c.43.11.65.27,1.06.18v.21c1.62-1,6,3.25,5.84,3.3,0,.41-.18.67-.15,1.09-.18.68-.13,1.51-.31,2.19a11.28,11.28,0,0,0,1.81,6.35l.91,1.27c-.19.46-.19.46,0,.62,0,.21.22.16.22.16l.18-.46c1.36,1.8,2.7,3.39,4,5A21.09,21.09,0,0,1,237.22,119.52Zm-45.85-11.15c0,.42-.16.88-.14,1.3-.17.67-.14,1.3-.31,2a61.7,61.7,0,0,0-.37,8.76,10.19,10.19,0,0,1-.4,4.32c0,.21,0,.21.23.37a5.58,5.58,0,0,1,.59,3.25l0,.41a.66.66,0,0,1,.24.58l.06,1,.21,0,.19-.26a7.77,7.77,0,0,0,.27,1c.21.16.24.58.66.69a2,2,0,0,1-.26-1,54.08,54.08,0,0,1-1.29-8.37l-.12-2.3c.11-1.93,0-3.6.13-5.32a16.88,16.88,0,0,1,.54-5.62l-.05-1A.26.26,0,0,1,191.37,108.37Zm4,23.61a.68.68,0,0,0-.24-.58,34.79,34.79,0,0,0-1.3-4.56,2,2,0,0,0-.26-1v-.21l-.2.26,0,.21a24,24,0,0,0,1.54,5.35Zm2-1.94a2.5,2.5,0,0,0-.48-1.16,32.37,32.37,0,0,1-1.39-6.24.17.17,0,0,0-.21-.16l0,.42a13.71,13.71,0,0,0,.64,4.09,28.06,28.06,0,0,0,1.22,3.31l.21-.05Zm1.28.55-.8-3.2a18,18,0,0,1-1.15-5.87l-.19-3.55-.25-.79a1.46,1.46,0,0,0-.16.88l0,.42a34.85,34.85,0,0,0,.55,6.43,16.45,16.45,0,0,0,1.08,4.41A2.75,2.75,0,0,0,198.63,130.59ZM197,111.93c0,.21.23.37.45.53a.68.68,0,0,0,.63.06,9.81,9.81,0,0,0,6.61-1.74c.21,0,.4-.31.38-.73l-.09-1.67a21.09,21.09,0,0,0-2.56-8.71c-.44-.32-.68-.9-1.11-1.22a.65.65,0,0,0-.83.19,12.29,12.29,0,0,0-.93,2.33,32.78,32.78,0,0,0-2.41,9.65A2.88,2.88,0,0,0,197,111.93Zm8.14-8.45a7.86,7.86,0,0,0,.53,2.2,11.3,11.3,0,0,0,.36,2.67,3,3,0,0,0,.14-1.3,17.13,17.13,0,0,0-.61-3.46l-.45-.53C205.14,103.27,204.94,103.53,205.15,103.48Zm3-3.44a36.77,36.77,0,0,1,.87,4.66.18.18,0,0,0,.22.17v-.21a24.71,24.71,0,0,0-.92-5.5l-.22-.16Zm10-4.65c0-.21-.23-.37-.42-.11a1.37,1.37,0,0,0-.38.72,4.44,4.44,0,0,1,.09,1.67c-.18.68-.14,1.31-.31,2l-.41,4.11a24.12,24.12,0,0,1-.64,3.75,30.93,30.93,0,0,1-.94,5.93l.21,0c0-.21.19-.26.18-.47a53,53,0,0,0,1.45-8.16c.46-3.07.72-6.09,1.19-9.16Zm6.7,3.74c0-.84-.29-1.42-.33-2.25v-.21l-.21,0a10.79,10.79,0,0,0,.35,2.66l.21,0Zm1.06-3.63-.22-.16-.19.25a17.33,17.33,0,0,0,0,3.39.17.17,0,0,0,.22.16c0,.21.21,0,.21,0A20.62,20.62,0,0,1,225.88,95.5ZM230,117.81c0,.21.24.58-.16.88a.66.66,0,0,0,.24.58c0,.21.19-.26.22.16.25.79.29,1.63.53,2.2,0,.21.23.37.24.58l.21,0,0-.42A5.35,5.35,0,0,0,230,117.81Zm3.19,1a9.53,9.53,0,0,0-.75-2.36,3.72,3.72,0,0,0,.54,2.2v.21Zm2.05-.9a11.24,11.24,0,0,0-.56-2.62c-.23-.37-.24-.58-.46-.74-.19.26,0,.63.05.84a8.05,8.05,0,0,1,.52,2,1.77,1.77,0,0,1,.27,1l.2,0Zm1.48.29a18.5,18.5,0,0,0-1.72-4.89.62.62,0,0,0-.23-.36c0,.41.25.78.27,1.2l.5,1.58.83,3.61a.16.16,0,0,0,.21.16.25.25,0,0,0,.2-.25Z"/>
      <path class="cls-1" d="M292.85,86.09c-.61.36-1,.87-1.61,1.23a8.79,8.79,0,0,1-1.21.91,13.83,13.83,0,0,1-2.44,1.41,2,2,0,0,0-1,1.5,8.08,8.08,0,0,1-.31,2.18L285.84,96c-.2.26-.19.47-.4.52-.41.09-.82.19-.79.82l.07,1.25c.33,2.25-.81,4.42-1.75,6.54-.37.93-.76,1.44-1.13,2.38a.63.63,0,0,0,.05.83c1.15,2.06,2.71,3.81,5.25,4.28l1.29.55a5.08,5.08,0,0,0,2.89-.88,3.5,3.5,0,0,1,1.22-.71c.62-.14,1.29.76.9,1.27a11.65,11.65,0,0,1-4.35,4.82,31.92,31.92,0,0,1-7.45,1.73,5.31,5.31,0,0,1-4.08-1.8l-1.31-1a4.51,4.51,0,0,1-1,1.07,34.46,34.46,0,0,1-7,6.28c-4,2.84-9.7,2.89-12.56.38a10.72,10.72,0,0,1-3.73-7.18q-1.81-10.37,5.89-19.13a77,77,0,0,1,5.56-5.73,2.29,2.29,0,0,0,.51-2.24,48.86,48.86,0,0,1-1.85-11,29.53,29.53,0,0,1,1.55-10.3c.55-1.4,1.31-2.85,1.88-4a6.32,6.32,0,0,1,2.59-2.51,13.49,13.49,0,0,1,7.22-2.1,9.32,9.32,0,0,1,2.74.42,1.66,1.66,0,0,1,.89.86c1.63,3,1.82,6.55,1.59,10.2l.22.16c.68-2.9.12-5.52-.44-8.15l.42-.09c0,.84.51,1.78.57,2.83a20.79,20.79,0,0,1-1.74,10.55,31.34,31.34,0,0,1-5.77,9.59c-1.2,1.13-1.36,2-.88,3.17a15.19,15.19,0,0,1,1,2.94c.22.16.24.58.47,1A5.68,5.68,0,0,1,277,90.84c4.46-2.73,8.94-5.25,13.91-6.4l1.45-.34c.63.07.85.23.88.85A.82.82,0,0,1,292.85,86.09Zm-39,23c-.15,1.1-.52,2-.67,3.12l.16,2.93c-.22-.16-.22-.16-.23-.37a.25.25,0,0,0-.2.25,25.21,25.21,0,0,0,1.21,3.11.89.89,0,0,0,.18-.68Zm3.21,9c-.31-1.83-.83-3.62-1.13-5.45l-.38.72c-.16,1.1.52,2,.8,3.2a4.29,4.29,0,0,0,.5,1.58Zm1.76-2.31-.9-5.08-.21,0a15,15,0,0,0,.38,3.08Zm1,0c-.31-2-.41-3.92-.73-6A9.56,9.56,0,0,0,259.86,115.75ZM273.28,112A99.06,99.06,0,0,1,266,96.56c-.23-.37-.24-.57-.46-.74-2.57,2.72-3.87,6-4.94,9.4-.42.1-.63-.06-1.25.08.24.58.05,1,.27,1.21a1.3,1.3,0,0,1,.48,1.15c-.49,2.66-.57,5,.38,7.11a13.19,13.19,0,0,0,1.42,3c0,.21.23.37.45.53l0,.42.67.69c.64.28,1.26.13,1.7.46a4.5,4.5,0,0,0,4.93-1.78l3.52-4.63A1.31,1.31,0,0,0,273.28,112Zm-9.49-28.68c0,.42.46.74.49,1.37a11.66,11.66,0,0,1,1,2.94c0,.62.27,1,.3,1.62l.21,0-.9-5.08-.29-5.43c-.09-1.67,0-3.39-.06-5.06l-.21.05C263.66,77,264,80.09,263.79,83.32Zm2.89-.67a28,28,0,0,0,1.08,4.4l.21,0c-.35-2.46-.89-4.87-1.44-7.28A4.66,4.66,0,0,0,266.68,82.65Zm2.87,2.72.42-.1c-.35-2.67-.9-5.08-1.24-7.54A23.74,23.74,0,0,0,269.55,85.37Zm1-1.08.42-.1a49.89,49.89,0,0,1-1-11.18C269.52,76.91,269.31,80.77,270.54,84.29Zm.79-1,.2-.05c.2-.25.19-.46.4-.51A17,17,0,0,0,274.34,69a16.9,16.9,0,0,0-1.2-2.9l-.66-.48C270.13,68.73,269.47,79.88,271.33,83.26ZM272.79,95l.22.16a50.55,50.55,0,0,0-1.75-5.3l-.21,0,0,.63A35.65,35.65,0,0,1,272.79,95Zm5.48,8.46A74.54,74.54,0,0,1,275,96.17L272,88.81l-.2,0a87.87,87.87,0,0,0,6,14.88C278.08,103.7,278.08,103.7,278.27,103.44Zm4.24-10.93a10.53,10.53,0,0,0-1.22.71c-1,.45-1.83,1.06-2.85,1.51l-1.25.29c-.62.14-1.25.08-2.08.27a64.27,64.27,0,0,0,3.54,7.43A57.06,57.06,0,0,0,282.51,92.51Zm-6.38-17.34a6.15,6.15,0,0,0-.06-5.07C276.16,71.78,276,73.49,276.13,75.17Zm3.72-4.89c.53-1.81.48-2.86-.2-3.76Z"/>
    </g>
    <g>
      <path class="cls-1" d="M143.73,259.12a.51.51,0,0,1,.35-.49l6.55-1.48c6-1.36,11.1,2.42,11.39,8.4a13.63,13.63,0,0,1-10.34,13.39l-6.54,1.49a.34.34,0,0,1-.39-.33Zm7.64,18.54a11.75,11.75,0,0,0,9.1-11.76c-.26-5.39-4.63-8.59-10-7.36l-5.21,1.18.93,19.12Z"/>
      <path class="cls-1" d="M166.51,254a.49.49,0,0,1,.38-.49l12.38-2.81a.33.33,0,0,1,.42.31l0,.53a.51.51,0,0,1-.38.5L168,254.55l.41,8.59,9.79-2.22a.34.34,0,0,1,.42.32l0,.53a.51.51,0,0,1-.38.49l-9.78,2.22.45,9.22,11.29-2.57a.34.34,0,0,1,.42.32l0,.5a.52.52,0,0,1-.39.49L168,275.25a.33.33,0,0,1-.42-.31Z"/>
      <path class="cls-1" d="M191.66,248.24a.52.52,0,0,1,.38-.49l.68-.16a.34.34,0,0,1,.39.33l1,20.08,9.84-2.24c.37-.08.41.1.42.32l0,.56a.45.45,0,0,1-.38.43l-10.9,2.47a.33.33,0,0,1-.42-.31Z"/>
      <path class="cls-1" d="M205.68,266.31l8.45-23.83a.55.55,0,0,1,.36-.3l.09,0c.16,0,.31,0,.41.13l10.47,19.53c.07.18.08.36-.26.44l-.8.18a.42.42,0,0,1-.45-.18l-2.78-5.16-11.79,2.67-2.19,6.29a.63.63,0,0,1-.41.38l-.87.2C205.69,266.69,205.6,266.58,205.68,266.31ZM220.59,256l-5.89-11.35-.06,0-4.76,13.76Z"/>
      <path class="cls-1" d="M237.91,238.7,232,240c-.31.07-.42-.09-.43-.37l0-.47a.49.49,0,0,1,.38-.5l13.27-3a.33.33,0,0,1,.42.32l0,.53a.49.49,0,0,1-.38.49l-5.93,1.35,1,20.05a.55.55,0,0,1-.48.52l-.55.12a.34.34,0,0,1-.43-.31Z"/>
      <path class="cls-1" d="M249.16,235.2a.52.52,0,0,1,.38-.5l12.38-2.81a.34.34,0,0,1,.42.32l0,.53a.49.49,0,0,1-.38.49l-11.29,2.57.42,8.59,9.78-2.22a.34.34,0,0,1,.42.31l0,.53a.52.52,0,0,1-.39.5l-9.78,2.22.45,9.22,11.29-2.57a.34.34,0,0,1,.42.32l0,.49a.52.52,0,0,1-.38.5L250.6,256.5a.34.34,0,0,1-.42-.32Z"/>
      <path class="cls-1" d="M277.12,228.13a9.29,9.29,0,0,1,7.64,1.2.39.39,0,0,1,.06.55l-.47.64c-.18.23-.33.23-.53.09a8.46,8.46,0,0,0-6.63-1.08,12.17,12.17,0,0,0-9.16,12,8,8,0,0,0,10.11,7.59,12,12,0,0,0,6.38-4.1.45.45,0,0,1,.5-.17l.55.41a.35.35,0,0,1,0,.53,13.12,13.12,0,0,1-7.38,4.73c-6.17,1.4-11.41-2.38-11.72-8.64A14,14,0,0,1,277.12,228.13Z"/>
      <path class="cls-1" d="M289.68,226a.52.52,0,0,1,.38-.5l.65-.15a.33.33,0,0,1,.42.32l.47,9.55,13.86-3.14-.47-9.56a.51.51,0,0,1,.38-.49l.65-.15a.32.32,0,0,1,.42.31l1,21a.47.47,0,0,1-.38.49l-.65.15a.33.33,0,0,1-.42-.31l-.49-10.12-13.86,3.14.49,10.12a.49.49,0,0,1-.38.5l-.65.14a.33.33,0,0,1-.42-.31Z"/>
    </g>
    <g>
      <path class="cls-1" d="M59.15,243.14a5.31,5.31,0,0,1-2,2.16c-1.82,1.27-3.62,2.75-5.44,4-2,1.53-7.51,4.51-9.52,6l-1.2.92c-.41.31-.63.15-1.05,0-.4.31-.61.36-1.06-.17l-.44-.32a10.06,10.06,0,0,1-2.51-.05,2.14,2.14,0,0,1-.86-.43,1,1,0,0,1-.06-1.05l-.22-.16v-.21c-.22-.16-.63-.06-.66-.48a3,3,0,0,1,.14-1.3c.6-.56.37-.93.33-1.56-.34-6.27-1-14.58-1.37-21,0-7.62,0-12.06-.29-16.65V201.44l.35-5.16a7.17,7.17,0,0,1,.52-2c0-.21.18-.47.6-.36,0,.21.23.37.25.58s-.18.67.25.79l0,.41a1.41,1.41,0,0,1-.16.89c0,3.18-.29,6.2-.11,9.34.15,2.71.45,15.76.92,24.33l-.34-21.3a38.72,38.72,0,0,0-.07-5.06c.1-2.14,0-4.23.28-6.41a4,4,0,0,0,.09-2.14,7,7,0,0,1,.51-2.23c.19-.26.18-.47.39-.52.18-.47.6-.56,1-.24,0,0,.21-.05.22.16.59-.77.59-.77,2.06-.69l0,.42.22.16.39-.52a.56.56,0,0,1,.43.11,7.18,7.18,0,0,1,.11,2.09,38.89,38.89,0,0,0-.59,8.39c0,3.39,0,6.79.14,10.13l.13,2.3.22-7.46c0-4,0-8,.17-12.1.16-.89.11-1.72.29-2.4,0-.21,0-.42.38-.72l.07,1.25c-.44,3.49-.48,6.67-.7,10.11.08,1.46,0,3.18,0,4.65.09,1.67,0,3.18,0,4.64a35.64,35.64,0,0,0,0,4.65c.13,2.29.26,4.59.13,9.91l.65,11.7a52.73,52.73,0,0,0,.53,5.8c0,.21-.18.68,0,.84a10.79,10.79,0,0,0,1-.45c1.6-1.22,6.48-4.06,8.09-5.28l1.41-1a4.5,4.5,0,0,1,2.28-.54c.2,0,.22.16.42.12a3.56,3.56,0,0,1-.37.93c.64.06,1.44-.55,2.11.14l-.38.72,1-.24.67.69c-.17.68-.78,1-1,1.71a11.45,11.45,0,0,1,1.4-1.18,1.64,1.64,0,0,1-.56,1.19,4.32,4.32,0,0,0-.79,1,4.18,4.18,0,0,0-.79.82c.22.16.21-.05.41-.09l.8-.82,1-.87C59.56,242.84,59.35,242.89,59.15,243.14Zm-22.38,4.6c-.05-1-.31-1.83-.37-2.88,0-.21-.24-.57,0-.83.14-1.3-.34-2.46-.43-3.92l.06,1,.31,5.64a8.64,8.64,0,0,0,.13,2.3,1.39,1.39,0,0,0,.25.79A8.06,8.06,0,0,0,36.77,247.74ZM39.6,200.1c.13-1.3.07-2.55.2-3.86-.19.26-.19.26-.18.47a21.47,21.47,0,0,0-.14,5.11V202C39.46,201.4,39.63,200.73,39.6,200.1Zm5.69,46.28c1-.87,4.47-2.52,5.87-3.7-1.42.76-4.88,2.63-5.69,3.24C45.49,246.13,45.28,246.17,45.29,246.38Z"/>
      <path class="cls-1" d="M105,230.32l0,.83c-.06,2.77-2.88,8.72-6,9.65-.19.26-4.37,4.41-12.63,2.74l-.64-.27c-1.5-.5-2.2-1.81-1.67-3.63a.94.94,0,0,0,.18-.47c.21,0,.21,0,.43.12a.58.58,0,0,1,.23.37c0,.2.23.36.46.73l.22.16a.77.77,0,0,0,.18-.46c0-.21-.23-.37-.25-.79l0-.42c0-.42,0-.62.38-.72.21,0,.22.16.43.11,0,.21.23.37.24.58l.22.16.19-.26a.66.66,0,0,1-.24-.58.68.68,0,0,1,.59-.77,1.33,1.33,0,0,0,.85.23c.19-.26.19-.26.41-.1.21-.05.23.37.43.11.4-.3.41-.09.63.07a1.68,1.68,0,0,0,1.3.75c1.47.08,4.4,0,5.17-1.21a5.22,5.22,0,0,0,.89-3,15.46,15.46,0,0,0-.6-3.24,17.15,17.15,0,0,0-3.75-7.17,51.45,51.45,0,0,1-4.27-8.95,106.61,106.61,0,0,1-5.91,21.91,11.11,11.11,0,0,1-1.3,3.06,15,15,0,0,1-1.15,2L78.9,244a9.23,9.23,0,0,1-1.17,1.54l-.2.26a14.29,14.29,0,0,1-1.78,1.9,12,12,0,0,1-4.45,2.94c-4.12,1.18-7.5.7-10.17-2.06a9.48,9.48,0,0,1-2.06-3.12A17.75,17.75,0,0,1,57.3,240a65.49,65.49,0,0,1-.91-12.7,63.57,63.57,0,0,1,1.52-10.51,31.59,31.59,0,0,1,2.18-6,10.65,10.65,0,0,1,4.78-4.5A10.5,10.5,0,0,1,69,204.87a8.69,8.69,0,0,1,4.19.08,2,2,0,0,1,1.34,1.38c0,.21.62-.15,1.38,2.22a31.24,31.24,0,0,1,1.26,7.74A.93.93,0,0,0,77,217a11.66,11.66,0,0,1,.15,2.71c-1.25,3.89-3.22,6.26-8.4,7.26l-2.69.63c-.41.09-.63-.07-1,0s-.61.35-.6.56l.12,2.09.08,1.46a30.72,30.72,0,0,0,1,6.13,18.73,18.73,0,0,0,2.35,4.74,7,7,0,0,0,3,2,2.66,2.66,0,0,0,1.49.5c2.31.1,5-4.76,6-8.6A48,48,0,0,0,80,228.76a6.84,6.84,0,0,1,.29-2.19c0-.2.19-.46.41-.3l.22.16c0-.63.14-1.09.12-1.51.52-2,.79-4.63,1.11-6.61l.89-6.55c.12-1.72.3-2.19.55-5.21,0-.21,1.18-5.15,1.37-5.61l.22.16a1.39,1.39,0,0,1,.25.79l.22.16c.21-.05.41-.1.4-.31s.18-.47.17-.67l0-.84.85.22a.25.25,0,0,1,.19-.25l.2-.26c.42.11.64.27,1.06.17v.22c1.62-1,6,3.24,5.84,3.29,0,.41-.17.67-.15,1.09-.17.67-.13,1.51-.3,2.18a11.26,11.26,0,0,0,1.82,6.35l.9,1.27c-.18.47-.18.47,0,.63,0,.21.22.16.22.16l.18-.47c1.36,1.8,2.7,3.39,4.05,5A21.24,21.24,0,0,1,105,230.32ZM59.09,219.25c0,.41-.16.88-.13,1.3-.18.67-.14,1.3-.32,2a63.28,63.28,0,0,0-.35,8.76,10.06,10.06,0,0,1-.39,4.33c0,.21,0,.21.23.37a5.63,5.63,0,0,1,.6,3.24l0,.42a.66.66,0,0,1,.24.58l.06,1,.21,0,.19-.25a7.53,7.53,0,0,0,.27,1c.21.17.24.58.66.7a2.07,2.07,0,0,1-.26-1,54.25,54.25,0,0,1-1.3-8.37l-.13-2.3c.11-1.93,0-3.6.13-5.32a16.7,16.7,0,0,1,.53-5.63l-.06-1A.26.26,0,0,1,59.09,219.25Zm4,23.6a.66.66,0,0,0-.24-.58,36.41,36.41,0,0,0-1.3-4.56,2.08,2.08,0,0,0-.27-1v-.2l-.19.25V237a24.61,24.61,0,0,0,1.55,5.35Zm2-1.94a2.63,2.63,0,0,0-.49-1.16,33.13,33.13,0,0,1-1.39-6.24.17.17,0,0,0-.21-.16l0,.42a13.6,13.6,0,0,0,.64,4.08,28.71,28.71,0,0,0,1.23,3.31l.21,0Zm1.28.54-.8-3.2a17.91,17.91,0,0,1-1.16-5.86l-.2-3.55-.25-.79a1.38,1.38,0,0,0-.16.88l0,.42a33.25,33.25,0,0,0,.57,6.43,15.93,15.93,0,0,0,1.08,4.4A2.7,2.7,0,0,0,66.39,241.45Zm-1.65-18.66c0,.21.23.37.45.53a.68.68,0,0,0,.63.07,9.83,9.83,0,0,0,6.61-1.76c.2,0,.4-.3.38-.72l-.1-1.67a21,21,0,0,0-2.57-8.71c-.44-.32-.68-.9-1.12-1.22a.64.64,0,0,0-.82.19,11.84,11.84,0,0,0-.92,2.33,32.82,32.82,0,0,0-2.4,9.66A2.71,2.71,0,0,0,64.74,222.79Zm8.12-8.46a8.41,8.41,0,0,0,.54,2.21,11.76,11.76,0,0,0,.36,2.66,3,3,0,0,0,.14-1.3,17.61,17.61,0,0,0-.61-3.45l-.45-.53C72.85,214.12,72.66,214.38,72.86,214.33Zm3-3.44a35.11,35.11,0,0,1,.88,4.66.17.17,0,0,0,.22.16v-.21A24.07,24.07,0,0,0,76,210l-.22-.16Zm10-4.67c0-.2-.23-.37-.43-.11a1.47,1.47,0,0,0-.38.73c.25.57.06,1,.1,1.67-.18.67-.14,1.3-.31,2l-.41,4.12a23,23,0,0,1-.63,3.74,30,30,0,0,1-.93,5.93l.21,0c0-.21.19-.26.18-.47a53,53,0,0,0,1.44-8.16c.46-3.08.71-6.1,1.17-9.17Zm6.7,3.73c0-.84-.29-1.42-.33-2.25v-.21l-.21,0a10.45,10.45,0,0,0,.36,2.67l.2-.05Zm1.06-3.63-.22-.16-.2.25a17.37,17.37,0,0,0,0,3.39.17.17,0,0,0,.22.16c0,.21.21,0,.21,0A20.62,20.62,0,0,1,93.59,206.32Zm4.16,22.3c0,.21.24.58-.16.89a.65.65,0,0,0,.24.57c0,.21.2-.25.22.16.25.79.3,1.63.54,2.21,0,.2.23.36.24.57l.21,0,0-.42A5.36,5.36,0,0,0,97.75,228.62Zm3.2.95a10.08,10.08,0,0,0-.76-2.37,3.73,3.73,0,0,0,.54,2.21v.2Zm2-.9a11,11,0,0,0-.56-2.62c-.23-.37-.24-.58-.46-.74-.2.25,0,.62,0,.83a8.23,8.23,0,0,1,.52,2,1.65,1.65,0,0,1,.27,1l.21,0Zm1.49.28a18.82,18.82,0,0,0-1.74-4.88.58.58,0,0,0-.23-.37c0,.42.25.79.28,1.2l.5,1.58.83,3.61a.18.18,0,0,0,.22.17.25.25,0,0,0,.19-.26Z"/>
      <path class="cls-1" d="M154.29,193.61a3.68,3.68,0,0,0-.79.82l-2.42,1.83a6.08,6.08,0,0,0-.56,1.19l.08,1.47a44,44,0,0,0,.08,5.27c0,4,.23,8,.45,11.95a45.12,45.12,0,0,0,.62,7.48,3.9,3.9,0,0,0,.3,1.62,10.44,10.44,0,0,1,.14,2.51.91.91,0,0,1-.61.35l0,.63a.26.26,0,0,0-.19.26.17.17,0,0,1-.22-.16.89.89,0,0,1-.46-.74c-.37.93-.52,2-1.32,2.63-.21.05-.21.05-.43-.11a.25.25,0,0,1-.19.26,2.6,2.6,0,0,1-.36,1.14c-.21.05-.19.26-.4.3-.82.41-1,.25-1.29-.54l-.08-1.46c0-.21,0-.63-.25-.79a10.07,10.07,0,0,1-.35-2.46c-.12-2.3-.46-4.55-.58-6.85a13.76,13.76,0,0,0-.37-2.87l0-.63c-.4.31-.18.47-.37.72l.08,1.47c.33,2.25.47,4.76.8,7a35.3,35.3,0,0,0,.67,4.5,3.08,3.08,0,0,1-.11,1.93c0,.42-.18.47-.59.56a1.45,1.45,0,0,1-1.33-1.17l-.08-1.46c-.36-2.88-.51-5.59-.87-8.26a2,2,0,0,0-.27-1c0,.21-.19.26-.39.52a40.46,40.46,0,0,1-2.65,5.06,13.25,13.25,0,0,1-1.95,2.58l-.8.82a3.69,3.69,0,0,0-.79.82l-.21,0a13.3,13.3,0,0,1-5.24,3.77,8.44,8.44,0,0,1-6.07.15c-1.27-.34-2-1.45-2.85-2.3a28.85,28.85,0,0,1-1.68-3.84,53,53,0,0,1-1.47-11.5,100.87,100.87,0,0,1,.7-13.92c.3-2.19.6-4.38,1.09-6.82.48-2.65,2.63-9.29,3.32-12a47.21,47.21,0,0,1,2.74-7.41,26.18,26.18,0,0,1,3.09-4.74,10.79,10.79,0,0,1,5.45-3.82,1.8,1.8,0,0,0,.81-.4,14.6,14.6,0,0,1,5.22-.37,1.93,1.93,0,0,1,1.51.7l.64.28a1.73,1.73,0,0,1-.15,1.09c0,.42-.57,1-1,1.08a1.38,1.38,0,0,0-.81.4,3.71,3.71,0,0,1-1.44.55,8.07,8.07,0,0,0-3.24,2,1.47,1.47,0,0,1-.38.73,30.85,30.85,0,0,0-2.48,4.39,33.58,33.58,0,0,0-1.45,4.14l-.54,1.61c-.52,2-2.49,8-3,10a90.38,90.38,0,0,0-1.51,10.72l-.23,7.25a36.79,36.79,0,0,0,.37,6.68,23.54,23.54,0,0,0,.92,5.29,10,10,0,0,0,1.87,3.37,1.34,1.34,0,0,0,1.09.8.57.57,0,0,1,.39-.51,37.86,37.86,0,0,0,2.1-3.67,57.84,57.84,0,0,0,5.15-13.05l1.55-6.08c.2-.25.19-.46.16-.88a26.37,26.37,0,0,0-2.2,1.79c-.61.35-1.42,1-2.23,1.36a1.43,1.43,0,0,1,.79-.82,31.27,31.27,0,0,0,3.8-3.21s.2-.26,0-.42c-.41.1-.8.61-1.21.92a7,7,0,0,1-1.4,1.17,4.25,4.25,0,0,1-1.4,1.17,11.45,11.45,0,0,1-1.4,1.18c0-.42.18-.47.17-.68a14.33,14.33,0,0,0,1.78-1.9l3.61-2.95c.19-.26.4-.31.17-.68,0,.21-.19.26-.4.31-1.39,1.38-3,2.81-4.39,4-.2.26-.4.31-.39.52a1.25,1.25,0,0,1-1.67.18.91.91,0,0,0-.85-.23c-.63-.06-.86-.43-.9-1.06,0-.42,0-.83-.26-1a1.35,1.35,0,0,1-.07-1.26,8.82,8.82,0,0,1,.72-2.07,26,26,0,0,1,2-2.37,69.61,69.61,0,0,1,5.61-4.69l5.24-3.77a16.4,16.4,0,0,1,3.66-2.12,1.37,1.37,0,0,1,1.26.13c.21,0,.22.16.23.37-.21.05-.2.25-.4.3a21,21,0,0,1-3.22,2.45,3.59,3.59,0,0,0-1.22.71l-8.64,6.67c-.2.26-.61.36-1,.66l-.58,1c-.19.26-.4.31-.38.72.21,0,.4-.3.61-.35,2-1.74,3.81-3.22,5.82-4.74,1.8-1.48,3.82-2.8,5.84-4.33a24.11,24.11,0,0,1,3-2c.21-.05.4-.31.82-.4s.62-.15.86.43l-.56,1.19a3.05,3.05,0,0,0,1.23-.5c0,.21,0,.21.21.16.49,1.16.49,1.16-.51,2l-1.81,1.48a.89.89,0,0,0-.18.46c.61-.35,1-.87,1.61-1.22a3.71,3.71,0,0,1,1.41-1c.23.36,0,.41-.17.67l-1.6,1.43a5.65,5.65,0,0,0-1.19,1.13c-.21,0-.2.26-.4.51l.42-.09c.61-.36,1-.87,1.61-1.23a5.58,5.58,0,0,1,1.19-1.12C154.07,193.45,154.08,193.66,154.29,193.61Zm-28.16-9.08c0-.21.19-.25.18-.46a.25.25,0,0,0-.2.25,6.83,6.83,0,0,0-.93,2.13c-.33,1.56-2.12,7.05-2.46,8.61a71.13,71.13,0,0,0-1.57,9.47l-.4,7.92a58.71,58.71,0,0,0,.26,8.62c0,.42-.16.88-.12,1.51l0,1c.19-.46.19-.46.18-.67l.78,2.78a.58.58,0,0,0,.23.37,3.81,3.81,0,0,0-.29-1.42c-.33-2.25-.47-4.75-.61-7.26l.22-7.46c.08-2.34.37-4.74.45-7.09C122.47,198.08,125.13,189.21,126.13,184.53Zm-1.56,40.15c-.57-2.62-.94-5.49-1.3-8.37l0,.42a17.78,17.78,0,0,0,.53,5.8l.32,2a.61.61,0,0,0,.43.11c0,.21-.19.47-.18.68A.89.89,0,0,0,124.57,224.68Zm2.55.67a69.88,69.88,0,0,1-1.76-12.92l.08,1.47c0,.62-.15,1.09-.12,1.72a58.12,58.12,0,0,0,.53,5.8l.81,3.2C126.67,224.82,126.68,225,127.12,225.35Zm.71-2.28a36.07,36.07,0,0,1-1.06-11.6c.09-2.14.17-4.49.47-6.67a51.16,51.16,0,0,1,1-8.07c.33-1.77.65-3.54,1.17-5.56a53.57,53.57,0,0,1,1.81-5.08l.16-.89c-.4.31-.18.47-.16.89a30.67,30.67,0,0,0-2.06,4.5,5.72,5.72,0,0,0-.32,1.77c-.7,2.49-1,4.88-1.48,7.33l-.46,3.07c-.25,3-.5,6-.55,9a41.2,41.2,0,0,0,.48,8.78,12.17,12.17,0,0,0,.84,3.82.68.68,0,0,0,.24.58Zm12.76-23.3v-.2l-1.42,1c-.22-.16-.23-.37-.41.1-.21.05-.2.25-.4.3,0,.42-.19.47-.39.52a15.73,15.73,0,0,1-1.79,1.9c-.19.25-.4.3-.37.72l.41-.1Zm9.35-1.34a4.85,4.85,0,0,0-.11,1.72c.16,2.93.13,6.11.29,9l.06,1a15.74,15.74,0,0,0,0-3,14.09,14.09,0,0,1,.05-3l-.16-2.93A6.84,6.84,0,0,0,149.94,198.43Zm1.41,25.49c0-.62-.28-1.2-.31-1.83-.15-2.71-.3-5.43-.66-8.1l-.08-1.46-.2.05.29,5.43a29.69,29.69,0,0,1,.45,4.34l.11,1.88c.2,0,.21.16.23.37A.93.93,0,0,0,151.35,223.92Z"/>
      <path class="cls-1" d="M178.3,207.26c-.05,2.76.08,5.27,0,7.82l.13,2.3a13.16,13.16,0,0,1-1.16,5.56,1.39,1.39,0,0,1-.38.73,3.65,3.65,0,0,0,.35-1.36,10.78,10.78,0,0,0,.42-3.69v-.21l-.2.26a6.36,6.36,0,0,1-.31,2,19.37,19.37,0,0,1-.65,3.33c-.19.47-.16.88-.34,1.35a.26.26,0,0,0-.2.26l0-.42.47-2.86a17.24,17.24,0,0,0,.23-3.44v-.21l-1,5.31a4.2,4.2,0,0,1-.36,1.14.23.23,0,0,1-.19.25c-.21.05-.2.26-.42.1-.2.05-.2.05-.21-.16l-.12-2.09V223c0,.21-.2.26-.18.47v.21a7.05,7.05,0,0,1-.3,2.18c0,.21-.19.47-.17.68a.66.66,0,0,1-.83.19l0-.63,0-.83-.22-.16a.26.26,0,0,0-.2.26.89.89,0,0,0-.17.67l-.2.05-.21,0c0-.21-.23-.37-.24-.58a5.05,5.05,0,0,0-1-2.31,5.72,5.72,0,0,1-.53-2,.66.66,0,0,0-.24-.58c0-.2-.22-.16-.22-.16l-.39.52-3.32,4.37a5.87,5.87,0,0,1-1.78,1.9l-.82.4a16.46,16.46,0,0,1-4.33,1.23c-.42.09-.63-.07-1.06-.18a6.29,6.29,0,0,1-3.45-1.73,8.68,8.68,0,0,1-2.37-4.95,23.64,23.64,0,0,1,1-9.11,24,24,0,0,1,1.06-3.64,20.74,20.74,0,0,1,2.69-4.43,8,8,0,0,1,6.28-3.8,15.77,15.77,0,0,1,5,.3c1.27.34,1.27.34,1.2-.92-.33-2.25-.44-4.34-.56-6.43l-.9-4.87a3.38,3.38,0,0,0-.93-1.68c-.24-.58-.66-.69-1.27-.34-.21.05-.4.31-.81.61a53.4,53.4,0,0,0-5.76,5.79,18.67,18.67,0,0,0-2.56,2.93,1.33,1.33,0,0,1-.38.72,1.39,1.39,0,0,1-.38.73c-.19.25-.39.51-.61.35-.42-.11-1.09-.8-1.28-.55l-.83.2c-.42.09-.62.14-.85-.23-.21.05-.43-.11-.65-.27-.42-.11-.44-.53-.48-1.16l.36-1.14a28.27,28.27,0,0,1,1.93-3,38.23,38.23,0,0,1,5.92-6.67,24,24,0,0,1,2.81-2.14c1.21-.92,3.28-1.4,4.38-.39a3.83,3.83,0,0,1,2.08-.27,4.44,4.44,0,0,1,2.14.76l.66.49a8.16,8.16,0,0,1,3.56,3.82c0,.21.23.37.24.58a5.92,5.92,0,0,1,1,2.73c-.19.26,0,.42,0,.84l.2,0v-.21a.26.26,0,0,0,.2-.26v.21a8.07,8.07,0,0,0,.26,1c0,.2,0,.2-.18.46-.21.05-.17.68,0,.84.2-.05.41-.1.42.11a3.39,3.39,0,0,0,.29,1.41c.2,3.56.59,6.85.78,10.4A3.53,3.53,0,0,0,178.3,207.26ZM158.9,205a.26.26,0,0,0,.2-.26c.19-.26,0-.42,0-.63a.9.9,0,0,0-.61.36c0,.21,0,.21-.18.46a2.66,2.66,0,0,1-.75,1.66,13.45,13.45,0,0,0-1.36,2,2.58,2.58,0,0,1-1,1.5,1.37,1.37,0,0,0-.16.88c-.19.46-.38.72-.37.93-.2.26-.18.47,0,.63a.9.9,0,0,0-.17.67.93.93,0,0,0-.17.68v.21l.21-.05c.18-.47.58-.77.77-1.24a.9.9,0,0,0,.17-.67,3.33,3.33,0,0,1,.54-1.61c.56-1.19,1.32-2.64,1.87-4C158.32,206,158.5,205.32,158.9,205Zm-.2,4.06c0,.21-.2,0-.19.26a14.27,14.27,0,0,0-1.27,3.68l0,.21.2,0a30.25,30.25,0,0,1,1.26-3.89Zm2.49-.58a.89.89,0,0,0,.17-.67,1.37,1.37,0,0,1-.38.72,23.78,23.78,0,0,0-1.62,4.82c-.18.47,0,.84,0,.63C160.13,212.14,160.66,210.32,161.19,208.5ZM160,214.27c0,.21.23.37.22.16.54-1.6,1.08-3.21,1.82-4.87a17,17,0,0,1,1.11-2.79.26.26,0,0,0,.19-.26v-.21l-.21,0c0,.21,0,.21-.19.26A21.45,21.45,0,0,0,160,214.27Zm9.43-7.49c0-.42-.46-.74-.67-.9a3.17,3.17,0,0,0-2.57-.88,1.92,1.92,0,0,0-2.24,1.16l-.19.25A29,29,0,0,0,160.45,218a11.34,11.34,0,0,0,.46,4.55c.24.57.46.73.85.22a3.76,3.76,0,0,0,.8-.82,58.32,58.32,0,0,0,4.32-5.24c1-1.5,1.73-2.74,2.49-4.18a4.14,4.14,0,0,0,.51-2.24l-.15-2.71C169.72,207.36,169.69,206.94,169.47,206.78Zm7.85-2.05.07,1.26,0,.2.08,1.47v.42a.24.24,0,0,0,.19-.26l-.17-3.14Z"/>
      <path class="cls-1" d="M202.08,193.87v.21c-.18.46-.17.67-.58.77a1.92,1.92,0,0,0-1.44.54,1.36,1.36,0,0,1-1.44.55L197,195.7c-.43-.11-.66-.48-.89-.85a3.19,3.19,0,0,1-1.15-1.85c-.23-.37-.26-1-.49-1.36,0-.21-.22-.16-.23-.37l-.21,0-.21,0c.23.37-.17.68-.15,1.1,0,.21-.18.46-.16.88l0,.63a2.41,2.41,0,0,0-.15,1.09,1.41,1.41,0,0,0-.16.89c-.19.46-.17.67-.37.93a22.07,22.07,0,0,1-1,5.09l.21-.05a.26.26,0,0,1-.2.26c0,.63-.13,1.3-.1,1.93,0,3.6.07,5.06,0,6.78a8.55,8.55,0,0,1-.1,2.14,57.79,57.79,0,0,0,.12,5.9l0,.42c-.44-.32-.4.3-.61.35l-.41.1c0-.21,0-.21-.21,0v.21c.05.83.05.83-.57,1-.2.25-.2.25-.19.46a.26.26,0,0,0-.19.26.17.17,0,0,1-.22-.16c-.22-.16-.22-.16-.23-.37,0,0-.22-.16-.2.05l-.57,1.19c-.19.26-.41.09-.42-.11a.62.62,0,0,0-.23-.37l0-.21a.25.25,0,0,0-.19.25l0,.63,0,.21c0-.21,0-.21-.22-.16l0,.63c-.19.25-.18.46-.39.51a.68.68,0,0,1-.63-.06l0-.42-.85-4a7,7,0,0,1-.32-2.05c-.43-4.13-1.47-19.12-1-15a21.3,21.3,0,0,0,0-3.39v-.21c-.16-2.92.11-5.53.16-8.5a27.87,27.87,0,0,1,0-3.6c0-.42.17-.68.15-1.09a6.79,6.79,0,0,0,.09-2.14,9.73,9.73,0,0,0-.52,2,29.77,29.77,0,0,0-.3,6,.79.79,0,0,0-.18.46.26.26,0,0,0-.2.26l0,.63,0,.42c.22.16.22.16.23.37l0,.62a.26.26,0,0,1-.2.26l0-.42v-.21a.26.26,0,0,1-.2.26l.11,1.88a8.43,8.43,0,0,0-.15,1.09c.07,5.07.55,10,.62,15.09,0,.84.25.79.26,1a3.29,3.29,0,0,1,.29,1.42l.08,1.46c0,.42.25.78.29,1.41s.29,1.42.33,2.25l.25.79c0,.42-.17.67.05.83.21,0,.23.37,0,.42a4.49,4.49,0,0,0,.3,1.63l0,.41c-.21.05-.2.26-.41.31-.42-.11-.64-.27-.66-.69a2.08,2.08,0,0,1-.27-1,15.68,15.68,0,0,1-1-2.94c0-.42-.25-.79-.27-1.2-.43-3.93-.66-8.1-1-14.16l0-.63a40.56,40.56,0,0,0-.07-5.06c-.15-2.72,0-7.62.05-10.59a13.61,13.61,0,0,1,1.38-5.4,3.94,3.94,0,0,1,1-1.5c.2-.26.41-.1.43.11l0,.42c0,.21.22.16.22.16a.89.89,0,0,1,.18-.46l.38-.73c.2-.26.4-.3.63.06l0,.63.2-.05v-.2c.37-.94.37-.94,1-.67.21,0,.42-.09.43.12.41-.1.43.11.64.27,0,.42.26.79.28,1.21l.08,1.46c-.11,1.72.1,5.69,0,7.62a16.12,16.12,0,0,0,0,3.18c-.09,2.14,0,4.23-.07,6.36l.08,1.46V202a.25.25,0,0,0,.2-.25,6.36,6.36,0,0,0,.1-1.93,25.67,25.67,0,0,0,0-4l.25-6.83c-.15-2.72-.18-3.34,0-4a13.85,13.85,0,0,0-.37-2.88l0-.62c0-.21,0-.42.18-.47v.21a4.57,4.57,0,0,1,.49,1.37c.07,1.25-.08,2.34,0,3.39-.09,2.13-.08,6.15,0,8.24a9.61,9.61,0,0,0-.08,2.35v.21l.21-.05c0-.21.18-.47.17-.68.65-3.32,1.51-6.7,2.16-10.23.19-.26.19-.26.18-.47a10.48,10.48,0,0,0,.39-4.32,13.37,13.37,0,0,1,.4-4.12l.54-1.61c.2-.25.41-.3.4-.51.19-.26.62-.15.63.06l0,.63v.21c.21-.05.21-.05.2-.26a4.22,4.22,0,0,0,.37-.93c.18-.47.39-.52.82-.19,0,.2.22.16.42-.1,0-.21.19-.26.4-.31a3.91,3.91,0,0,1,1.07.39.17.17,0,0,1,.22.16,10.57,10.57,0,0,0,.49,1.36v-.21a.91.91,0,0,1,.17-.67c0,.21.23.37.26.79a14.06,14.06,0,0,1,.36,2.87l.41,7.32a30.84,30.84,0,0,0,.65,4.29,3.42,3.42,0,0,0,.29,1.41c.24.58.48,1.16.91,1.27C202.26,193.19,202.27,193.4,202.08,193.87ZM185.61,203l0,.41.5,9.2v.21c0,.2,0,.2.21-.05l-.52-9.4C185.83,203.17,185.62,203.21,185.61,203Zm.71-17.52c0-.21,0-.21-.23-.37v.21l-.24,7c.06,1-.08,2.34,0,3.6.11,1.88,0,3.81.11,5.69l.18,3.34a97.53,97.53,0,0,0,.85,11.65l-.3-5.43c-.23-4.18-.46-8.36-.49-12.79l.16-8.51C186.2,187,186.15,186.16,186.32,185.49Zm1.92,4.42c0-3.19.18-4.49.11-5.74l-.08-1.46c-.21,0-.21,0-.2.25l0,.42c-.15,1.09-.09,2.14-.25,3l-.06,10.39a42.1,42.1,0,0,1,.13,6.1l.15,2.72.39,3.29c.19-.46-.16-2.92,0-3.39l0-.62c-.16-2.93,0-3.61-.16-6.74C188.13,195.44,188.39,192.62,188.24,189.91Zm1.29,15.78a1.69,1.69,0,0,0-.26-1,40.56,40.56,0,0,0,.07,5.06V210a.24.24,0,0,1,.19-.25C189.51,209.08,189.47,208.45,189.53,205.69ZM193,185.61l-.21,0a1.85,1.85,0,0,1-.16.89c-.15,1.09-.51,2.23-.66,3.32-.85,3.59-1.49,7.12-2.12,10.87,0,.42.3,1.62.27,1.2l.43-3.69c.63-3.75,1.46-7.75,2.3-11.55C192.86,186.29,193.06,186,193,185.61Zm-2.29,15.56-.21.05c0,.42-.16.88-.13,1.3,0,.21-.18.68,0,.84.42-.1,0-.42.16-.89a1.45,1.45,0,0,1,.16-.88Zm1.29.55v0Zm6-24.47v.21l0,.21.15,2.71.2,0-.16-2.93Zm.82-.4v.42l.37,6.68c-.07-1.25.08-2.34,0-3.6l-.18-3.34Z"/>
      <path class="cls-1" d="M230,195a15.88,15.88,0,0,1-1,4.47,8.82,8.82,0,0,1-.72,2.07,6.44,6.44,0,0,1-.75,1.65,40.37,40.37,0,0,1-9,10.79,14.47,14.47,0,0,1-3.65,2.34l.21-.05c3.63,1.27,4.7,5.46,3.75,7.16-.78,1-1.35,2.22-2.13,3.25a21,21,0,0,1-4,3.9,14.39,14.39,0,0,1-2.22,1.57c-1.43.76-1.85.65-2.93,0,.59-.56,1.81-1.27,1.56-2.06l.4-.3c1.42-1,2.42-1.84,2.77-3,.35-1.35.9-2.75.4-4.11-.24-.58-.67-.9-.92-1.48-.21-.16-.21-.16-.42-.11a1.34,1.34,0,0,0-.48-1.16,3.61,3.61,0,0,0-1.08-.59l.37-.73c.19-.46.38-.72-.26-1a.17.17,0,0,1-.22-.16,8.79,8.79,0,0,1-3.41-1.11,7.61,7.61,0,0,1-3.8-4.19,30.7,30.7,0,0,1-2.09-7.55,29.05,29.05,0,0,1-.33-6.06c.12-1.51-.08-5.27,0-6.78a45.28,45.28,0,0,1,1.47-7.54c.54-1.61,1.3-3.06,1.84-4.67a11.64,11.64,0,0,1,4.32-5.24,17.23,17.23,0,0,1,5.93-2.65,10.16,10.16,0,0,1,3.56-.2,4.16,4.16,0,0,1,2.16,1.19,6.89,6.89,0,0,0,1.32,1.17c0,.42,0,.84.47.95l.78,2.78c0,.21.22.16.22.16v-.21l0-.84a2.45,2.45,0,0,1,.12,2.09.26.26,0,0,0-.2.26c-.43-.32-.43-.32-.62.15,0,.2,0,.2-.18.46l-.21.05c-.42-.11-.42-.11-.4.31,0,.2,0,.2-.18.46,0,.21,0,.42-.19.47a.58.58,0,0,1-.42-.11c0-.42-.24-.58-.26-.79l-.22-.16s-.21-.16-.2.05l0,.83V181a.29.29,0,0,1-.41.1l-.45-.53a12.39,12.39,0,0,0-3.14-3.71,2.81,2.81,0,0,0-2.14-1,1.08,1.08,0,0,0-1.23.5,6.62,6.62,0,0,0-1.54,2.47,29.52,29.52,0,0,0-2.31,7.53,49.38,49.38,0,0,0-.53,5.62,44.8,44.8,0,0,1,.08,5.28v.2a.17.17,0,0,1-.22-.16l-.22-4c-.07-1.25.08-2.34,0-3.6a68.08,68.08,0,0,0-.12,9.13,19.76,19.76,0,0,0,3.3,10.45v.2c.22.17.21,0,.21,0l.2-.05c0-.21,0-.21-.23-.37a12.27,12.27,0,0,1-2.13-4.58,19.44,19.44,0,0,1-.91-5.08l.19-.26v.21l0,.42a3.9,3.9,0,0,1,.3,1.62,20.66,20.66,0,0,0,2.69,7,5.16,5.16,0,0,0,6.21,2.57,3.49,3.49,0,0,0,1.43-.76l2.39-2.25c.78-1,1.56-2.06,2.33-3.29a18.44,18.44,0,0,0,2.44-5.23l1.06-3.63c.19-.26.18-.47.6-.56.21.16.2-.05.4-.31,0-.21.18-.47.6-.56l.39-.52.41-.09C230,193.91,230,193.91,230,195Zm-25.49,16.75c0-.42,0-.84-.26-1-.27-1-.11-1.88-.77-2.57v-.21c-.29-1.42-.8-3-1.1-4.61-.11-2.09-.43-4.13-.46-8.36a32.28,32.28,0,0,1,.18-4.48.86.86,0,0,0-.18.67,17,17,0,0,0-.24,3.23c0,3.81.07,5.06-.05,6.58l.14,2.71.1,1.67.07,1.26c.26,1,.73,1.94,1,2.94a1.46,1.46,0,0,0,.69,1.1l.7,1.32c.2-.05.2-.05.22.16Zm1.74-2.74a43.91,43.91,0,0,1-1.57-5.56.58.58,0,0,1-.23-.37c-.2.05-.19.26-.18.47v.21l-.22-.16.08,1.46c.23.37.05.84.68.9,0,.42.24.58.26.79.25.78.71,1.52,1,2.31,0,.21.22.16.22.16Zm2.27-.53a2,2,0,0,0-.26-1,30.93,30.93,0,0,1-1.82-6.34c-.23-.37-.25-.79-.47-.95a1.65,1.65,0,0,0,.27,1l0,.42a16.35,16.35,0,0,0,1.82,6.35C208.31,208.07,208.53,208.23,208.54,208.44Zm4.68,8.85a18,18,0,0,1,2.81,1.46C216,217.92,214.9,217.32,213.22,217.29Z"/>
      <path class="cls-1" d="M252.78,186a1.11,1.11,0,0,1-.14,1.09,28.14,28.14,0,0,0,0-4,41.53,41.53,0,0,0-.7-8.93,2.32,2.32,0,0,0-.28-1.21l0,.63a95.48,95.48,0,0,1,.6,10.86,37.29,37.29,0,0,1-.16,4.7,51.08,51.08,0,0,0-.12,5.52l-.13,1.31a3.63,3.63,0,0,0,.34-1.35l.21,0,.05,1a5.77,5.77,0,0,0-.32,1.77l-.71,2.28A18.4,18.4,0,0,1,250,203.2a12.29,12.29,0,0,1-3.76,4.06,23.77,23.77,0,0,0-2,1.32,10.51,10.51,0,0,1-3.27,1.61,7.88,7.88,0,0,1-3.12.3,8.22,8.22,0,0,1-5.79-2.24,8.42,8.42,0,0,1-2-2.91,27.06,27.06,0,0,1-3.22-12.79c.1-1.93,0-4,.28-6.21A33.58,33.58,0,0,1,230.11,174a19,19,0,0,1,2.5-4.18A16.44,16.44,0,0,1,237,166l.42-.1a13,13,0,0,1,6.87-.75,2.14,2.14,0,0,1,1.29.54c.2-.05.22.16.23.37a1.07,1.07,0,0,1-.57,1.19,1.3,1.3,0,0,1-.8.61,4.61,4.61,0,0,1-1.63.81,10.53,10.53,0,0,0-4.15,4.56,29.66,29.66,0,0,0-3.06,9.18l-.38,4.54a23,23,0,0,0,0,3.8,21.85,21.85,0,0,0,.77,6.38,25.32,25.32,0,0,0,2.61,5.53,7.36,7.36,0,0,0,2.43,2.19c.43.32.64.27,1.24-.29.18-.47.59-.78.77-1.24a16.26,16.26,0,0,0,1.29-3.27,39.42,39.42,0,0,0,2-10c.24-3.23.46-6.88.48-10.27a23.16,23.16,0,0,0-.3-5.43,9.59,9.59,0,0,0-.56-2.62c-.24-.58-.47-1-.29-1.41.2-.26.41-.31.62-.15l.44.32.21-.05a.87.87,0,0,1,.17-.67c0-.42,0-.42.39-.52.22.16.43.12.62-.14l.42-.1a2.36,2.36,0,0,1,1.71.66l1.12,1.43a.9.9,0,0,1,.47.74,9.92,9.92,0,0,1,.55,2.41c.35,2.67.49,5.17.64,7.89C252.85,183.48,252.92,184.74,252.78,186Zm-21.11-10.51-.22-.17c0,.21-.2.26-.19.47a36.7,36.7,0,0,0-2.14,6.64c0,.21,0,.42-.19.47-.41.09-.19.25-.18.46a1,1,0,0,1,.06,1,3,3,0,0,1-.14,1.3c.06,1-.09,2.14,0,3.18l.06,1c.4-.3.17-.67.15-1.09a13.15,13.15,0,0,0,.25-3c.33-1.77.64-3.74,1.15-5.77a28.8,28.8,0,0,0,1.22-4.52Zm.31,5.64a.93.93,0,0,1-.18.46,3.56,3.56,0,0,0-.37.93l0,.42a21.7,21.7,0,0,0-.23,3.44,8.12,8.12,0,0,0,0,3.18l0,.42c0-.21.19-.26.18-.46.12-1.72.22-3.65.53-5.63C231.86,182.89,232,182,232,181.17Zm1.88,3.79a38.36,38.36,0,0,1,.58-4.79,1.19,1.19,0,0,0,.16-.89,1.94,1.94,0,0,0-.37.93l-.49,2.45-.16.88a.84.84,0,0,0-.37.94,1.66,1.66,0,0,1,.26,1c-.15,1.1-.09,2.14-.25,3l.22,4,0,.42.22.16v-.21l0-.41A45.65,45.65,0,0,1,233.86,185Zm.9,1.06a.93.93,0,0,1,.17-.68,48.83,48.83,0,0,1,.76-5.25,13.4,13.4,0,0,1,.69-2.7,5.76,5.76,0,0,0-.76,1.44,31.21,31.21,0,0,0-1.27,7.28c-.07,2.56.05,4.86.19,7.36,0,.42.26.79.29,1.42l.21,0v-.21a2.49,2.49,0,0,0-.28-1.2l-.21-3.76a.26.26,0,0,1,.2-.26A9,9,0,0,0,234.76,186Zm13.85-7.26-.21.05-.12-2.3c0-.63-.28-1.21-.31-1.83v-.21l-.2.26.09,1.67.07,1.25c.12,2.09.24,4.39.15,6.53-.1,1.92-.41,3.9-.53,5.62a42.15,42.15,0,0,1-.54,5.42l0,.63v.2l.21,0c0-.21,0-.42.18-.47a3.32,3.32,0,0,1,.13-1.51,44.16,44.16,0,0,0,.86-7.19,9.53,9.53,0,0,1,.08-2.34A52.58,52.58,0,0,1,248.61,178.76Zm1.32-2.64c0-.41-.24-.58-.26-1-.19.46,0,.62.06,1l.05,1.05.1,1.67,0,.62c0-.2.18-.46.17-.67Zm1.79,2.12a5.4,5.4,0,0,0-.3-1.83l-.08-1.46c0-.42-.25-.58-.27-1a1.79,1.79,0,0,0,.06,1.05,36.22,36.22,0,0,1,.37,6.68l.1,1.88C251.72,181.84,251.61,180,251.72,178.24Zm-.18,8.09-.39,4.32a6,6,0,0,0-.1,1.93c0,.21,0,.21.22.16v-.21a3.76,3.76,0,0,0,.12-1.51,32.89,32.89,0,0,0,.2-4.07Zm1.07,4.19v.21c0,.84-.1,1.93-.05,2.76v.21l-.22-.16c0-.41.16-.88.14-1.3l-.08-1.46A.26.26,0,0,0,252.61,190.52Z"/>
      <path class="cls-1" d="M286.62,168.82l.43,7.73a23.08,23.08,0,0,0,0,3.81c.11,2.09,0,4,.11,5.89l.06,1.05a6,6,0,0,0-.1,1.93l.1,1.88a7.36,7.36,0,0,1-.46,3.07l-.5,2.23a3.06,3.06,0,0,1-1,1.71c-.19.25-.19.25-.41.09l-.41.1c-.2.26-.39.52-.6.56,0,.21-.2.26-.21,0s-.23-.37-.24-.58c-.2.26,0,.42-.17.68-.21,0-.2.26-.19.46-.19.26-.39.52-.61.36a.36.36,0,0,1-.43-.32l0-.84-.11-2.09a.17.17,0,0,0-.22-.16v.21l0,.84a1.4,1.4,0,0,1-.17.88,1.73,1.73,0,0,0-.14,1.09.26.26,0,0,1-.2.26l-.21,0c-.23-.37-.44-.53-.47-.95a6.64,6.64,0,0,0-.32-2c0-.21,0-.63-.25-.79a6.6,6.6,0,0,1-.32-2c0-3.18.05-6.57-.12-9.7a46.3,46.3,0,0,0-.08-5.28c-.15-2.71-.09-5.48-.25-8.19-.34-2.46-.49-5.18-1-7.59,0-.21.17-.67-.24-.58-.22-.16-.41.31-.39.52-1,1.49-1.74,2.73-2.5,4.18l-.76,1.45c0,.2-.19.25-.18.46A10.38,10.38,0,0,1,273,171.8l-.94,2.12a14.45,14.45,0,0,1-.73,1.87c0,.21-.2.26-.19.46v-.2c0-.42.18-.68.15-1.1l-.57,1a.92.92,0,0,1-.19.47c-.19.26-.19.26-.18.47l-.53,1.81-.38.73c-.2,0-.19.25-.17.67a2.41,2.41,0,0,1-.15,1.09l-.52,2a1.31,1.31,0,0,0-.36.93,4,4,0,0,1-.13,1.51c-.14,1.3-.7,2.49-.64,3.54a1.93,1.93,0,0,0-.15,1.09,1.31,1.31,0,0,0,.35-1.14c0-.21.2-.26.19-.47l0,.42c-.31,2-.42,3.7-.75,5.47-.15,1.09-.09,2.13-.24,3.23l.06,1,.06,1.05-.2.25c-.2,0-.22-.16-.42-.11a.26.26,0,0,0-.2.26l.05.83c.07,1.26-.13,1.51-.13,1.51-.43-.32-.26-1-.29-1.41l-.21-.16,0-.21a.26.26,0,0,0-.19.26,1.69,1.69,0,0,0-.16.88,2.11,2.11,0,0,1-.78,1s-.21.05-.22-.16c-.23-.37-.26-.79-.48-1.16l-.26-.78.05.83.06,1.05c0,.41-.18.67-.15,1.09a.56.56,0,0,1-.39.51.49.49,0,0,1-.65-.27c-.2,0-.22-.16-.23-.37-.23-.37-.24-.58-.46-.74v-.2l-.2.25,0,.84,0,.41c-.2,0-.21-.16-.42-.11a.92.92,0,0,1-.68-.9,10.31,10.31,0,0,1-1-2.31c0-.84-.29-1.62-.34-2.46l-1-6.75c-.4-3.5-.59-6.84-.77-10.19.07-2.55-.07-5.06,0-7.62-.05-.83.11-1.72.07-2.55a19.23,19.23,0,0,0,.22-3.44,12.46,12.46,0,0,1,1.43-4.57l.78-1c.2-.26.39-.52.61-.36.21-.05.23.37,0,.63-.19.46-.16.88-.35,1.35a10.26,10.26,0,0,0-.71,2.28c0,.84-.12,1.72-.07,2.56a1.48,1.48,0,0,0,.16-.89l.54-1.61c.18-.46.16-.88.35-1.35l.52-1.81a1.93,1.93,0,0,1,.36-1.14c0-.21.2-.26.39-.52a.36.36,0,0,1,.44.32,15,15,0,0,0-.25,3,4.47,4.47,0,0,0-.33,1.77l.05.84.21-.05,0-.63a29.42,29.42,0,0,0,.61-4.16c0-.21.2-.26.19-.47,0-.62.17-.67.59-.56l.21,0c.86.44.86.44,1.13,1.43l0,.42a17.36,17.36,0,0,1,0,3.39l-.36,5c-.09,2.14,0,4-.08,6.16-.08,2.34.27,4.8.39,7.1l.12,2.09c0,.21,0,.63.25.79l-.05-.84-.42-7.73a48.84,48.84,0,0,1,.11-5.53c-.14-2.5.15-4.9.23-7.25l.16-.88a3.77,3.77,0,0,0,.13-1.51v-.21a.17.17,0,0,1,.22.16c.07,1.25-.06,2.77,0,4a31.79,31.79,0,0,0-.29,6.2,56.7,56.7,0,0,0,.36,10.29c0,.42-.18.67,0,.83.41-.3.4-.51.38-.72a80.72,80.72,0,0,1,5.08-14.31,68.23,68.23,0,0,1,3.2-6.67l2.65-5.06.58-1a.88.88,0,0,1,1-.66l1-.25.42-.09a10.36,10.36,0,0,1,2.94.16,6.29,6.29,0,0,1,2.16,1.18l.25.79.76,2.36C286.13,163.64,286.47,166.1,286.62,168.82Zm-23.1,2.86c0-.84.11-1.72.07-2.56.16-.88.1-1.93.26-2.81a.17.17,0,0,0-.22-.16v.21l-.09,2.14c-.27,2.6-.34,5.16-.41,7.71a60.29,60.29,0,0,1,.13,6.11l.58,6.84v.21a2.32,2.32,0,0,1,.28,1.21v.21a.26.26,0,0,0,.2-.26c0-.42-.25-.79-.28-1.21l-.08-1.46c-.23-4.18-.68-8.52-.51-13A17,17,0,0,1,263.52,171.68Zm6.6,1.84c-.21,0-.2.26-.39.52-1.1,3-2.18,6.22-3.06,9.18l-1,4.46,0,.84c.21-.05.2-.26.19-.47a24.68,24.68,0,0,0,.85-3.58A83.45,83.45,0,0,1,270,174.41Zm-1.68,11.4.38-.73c-.17.68-.14,1.31-.31,2-.19.47-.16.89-.35,1.35l-.19.26v-.21Zm12.82.6v.42a36,36,0,0,0,.06,4.85.92.92,0,0,0-.19.47l0-.63-.06-1v-.42a.25.25,0,0,1-.2.25v.21c.07,1.26.36,2.67.43,3.93a8.87,8.87,0,0,1,.27,1l.2-.05a31.14,31.14,0,0,1,0-4.43l-.25-4.39Zm2.43-1.42c0-.21-.22-.16-.23-.37v.21c-.09,2.14,0,4.23-.06,6.37.1,1.88,0,3.6.08,5.27l0,.42.16-.89a51.38,51.38,0,0,0,.13-5.32l-.11-1.88.21,0Zm2,2.28a12.19,12.19,0,0,1,.05-2.76l-.29-5.22a.25.25,0,0,0-.19.25l0,.42.17,3.14c-.11,1.72,0,3.6-.12,5.32l.12,2.29a14.89,14.89,0,0,0,0,3V193l.21,0c0-.63.15-1.09.12-1.51A40.76,40.76,0,0,0,285.71,186.38Zm.88-6.76L286.5,178l-.1-1.67-.06-1.26a.26.26,0,0,0-.2.26,42.57,42.57,0,0,1,.07,5.06l.07,1.25c.1,1.89,0,3.81.1,5.69-.1,1.93,0,3.81-.1,5.74l0,.42.22.16v-.21c.18-.47.15-1.09.33-1.56l-.09-1.67a25.68,25.68,0,0,0,0-4l-.23-4.18a.91.91,0,0,1,.17-.67A4.63,4.63,0,0,0,286.59,179.62Z"/>
      <path class="cls-1" d="M306.53,157.39l0,.63c-.19.26-.19.26-.18.47a.18.18,0,0,0-.22-.17l0-.62a4.28,4.28,0,0,0-.58-2.83c0-.21-.22-.16-.22-.16v.21c.05.83.3,1.62.35,2.46.22.16.24.58.26,1l.05.84c-.18.46-.18.46-.61.35l-.41.1-.59.77c-.19.26-.4.31-.41.1,0-.42-.25-.58-.26-.79a.16.16,0,0,0-.21-.16v.21l0,.63c0,.41,0,.62-.16.88,0,.21-.39.51-.82.4l-.2.05c-.22-.16-.45-.53-.84,0l-.21,0a2,2,0,0,1-1.09-.8,9.85,9.85,0,0,1-.92-1.48c-.47-.95-1.15-1.84-1.62-2.79l-.66-.48c0-.21-.21-.16-.41.09a1.94,1.94,0,0,1-.37.94l-.09,2.13a9.51,9.51,0,0,0,1.61,6.4,3.35,3.35,0,0,1,.92,1.48c-.2.25-.4.3,0,.62l.21,0v-.21c1.35,1.6,2.9,3.14,4,4.78A19.08,19.08,0,0,1,306.68,183l.06,1c.14,2.5-2.88,8.71-6,9.44,0,.21-4.37,4.4-12.84,2.79-.21,0-.42-.12-.64-.28a2.63,2.63,0,0,1-1.45-3.47A.89.89,0,0,1,286,192c.2-.26.41-.31.42-.1a.58.58,0,0,1,.23.37c.22.16.24.58.46.74l.22.16c.2,0,.19-.26.18-.47s-.23-.37-.24-.58l0-.62c0-.42.18-.68.38-.73s.22.16.44.32c0,.21.23.37.24.58l.21,0,.19-.26c0-.21-.23-.37-.24-.58,0-.42.17-.68.6-.56.41-.1.63.06.84,0,.19-.26.19-.26.41-.1s.23.37.44.33c.39-.52.4-.31.62-.15.24.58.87.64,1.3.76,1.47.07,4.41.23,5.17-1.21a5.24,5.24,0,0,0,.89-3,8.86,8.86,0,0,0-.39-3.3,22,22,0,0,0-3.55-7.21l-3.38-4.29a27.52,27.52,0,0,1-2.27-3.28,13.11,13.11,0,0,1-1.07-8,14.29,14.29,0,0,1,.83-4,6.78,6.78,0,0,1,1.51-2.9,4,4,0,0,1,2-1.73.78.78,0,0,0,.4-.31,13.84,13.84,0,0,1,4.74-1.53c.41-.1.62-.14.84,0l2.31.09a2.61,2.61,0,0,1,1.26.13c.66.48,1.51.71,2.16,1.19a2.89,2.89,0,0,1,1.12,1.22,1.27,1.27,0,0,0,.46.74A10.92,10.92,0,0,1,306.53,157.39Zm-16.45,1.94a16.16,16.16,0,0,0-.63,3.75c.22.16.24.58.26,1l.21,0,.21-.05,0-.42c.17-.68.14-1.3.31-2l-.14-2.5Zm4.45.87c0-.21-.22-.16-.22-.16v.21a3.37,3.37,0,0,0,.35,2.46Zm1.17-1.55a.26.26,0,0,1-.2.26,6.4,6.4,0,0,0,0,3.39v.21a.17.17,0,0,0,.22.16v-.21a18.31,18.31,0,0,1,0-3.39Zm3.85,24.29s.39-.52.42-.1a9.57,9.57,0,0,0,.55,2.41l0,.42.22.16v-.21c.21-.05.19-.26.18-.47a9,9,0,0,0-1.26-3.93,2.15,2.15,0,0,1-.15,1.09Zm2.35-3.09a9.57,9.57,0,0,0,.55,2.41s.21,0,.22.16v-.21A3.4,3.4,0,0,0,301.9,179.85Zm2-.9c.24.58.28,1.2.52,1.78a6.4,6.4,0,0,0,.27,1c.21.16.2,0,.2,0v-.21a13.53,13.53,0,0,0-.57-2.83,1.27,1.27,0,0,1-.46-.74C303.7,178.37,303.92,178.53,303.94,179Zm.49-2.65a2.4,2.4,0,0,0,.27,1.2,3.55,3.55,0,0,0,.51,1.58l.84,3.82.22.16,0-.21-.06-1.25a21,21,0,0,0-1.53-4.93C304.64,176.46,304.44,176.5,304.43,176.3Z"/>
    </g>
  </g>
</svg>
